<svg width="50" height="51" viewBox="0 0 50 51" fill="none" xmlns="http://www.w3.org/2000/svg">
<path d="M0 25.7143C0 39.5208 11.1935 50.7143 25 50.7143C38.8065 50.7143 50 39.5208 50 25.7143C50 11.9078 38.8065 0.714294 25 0.714294C11.1935 0.714294 0 11.9078 0 25.7143ZM25.5589 14.7335C25.7382 14.9114 25.8808 15.1228 25.9784 15.3558C26.076 15.5888 26.1267 15.8387 26.1277 16.0913C26.1287 16.3438 26.08 16.5941 25.9842 16.8279C25.8885 17.0616 25.7476 17.2742 25.5697 17.4535L19.2812 23.7912H35.3365C35.8466 23.7912 36.3357 23.9938 36.6964 24.3545C37.057 24.7151 37.2596 25.2043 37.2596 25.7143C37.2596 26.2243 37.057 26.7135 36.6964 27.0741C36.3357 27.4348 35.8466 27.6374 35.3365 27.6374H19.2812L25.5697 33.9751C25.7476 34.1546 25.8884 34.3673 25.9841 34.6012C26.0797 34.8351 26.1284 35.0855 26.1273 35.3382C26.1262 35.5909 26.0753 35.8409 25.9776 36.0739C25.8798 36.3069 25.7372 36.5184 25.5577 36.6963C25.3782 36.8741 25.1655 37.0149 24.9316 37.1106C24.6977 37.2063 24.4473 37.2549 24.1946 37.2538C23.9419 37.2527 23.692 37.2018 23.4589 37.1041C23.2259 37.0064 23.0144 36.8637 22.8365 36.6842L13.2945 27.0689C12.937 26.7086 12.7364 26.2218 12.7364 25.7143C12.7364 25.2068 12.937 24.7199 13.2945 24.3597L22.8365 14.7443C23.0145 14.5646 23.2261 14.4218 23.4592 14.324C23.6924 14.2262 23.9426 14.1753 24.1955 14.1743C24.4483 14.1733 24.6989 14.2222 24.9329 14.3181C25.1668 14.4141 25.3796 14.5553 25.5589 14.7335Z" fill="#C7FFED"/>
</svg>
