<svg width="138" height="203" viewBox="0 0 138 203" fill="none" xmlns="http://www.w3.org/2000/svg">
<g filter="url(#filter0_d)">
<path d="M129.583 185.294C128.209 183.717 127.03 179.873 125.609 172.647C123.037 159.527 120.661 156.227 109.035 149.247C104.491 146.52 100.872 144.16 101.039 143.944C101.623 143.186 116.248 144.708 119.31 145.775C122.685 146.996 126.574 150.686 130.327 156.343C131.762 158.399 133.148 160.072 133.436 160.035C134.395 159.911 130.622 143.534 128.883 140.639C125.21 134.094 115.701 131.423 106.623 134.351C104.001 135.177 99.2931 136.468 95.9742 137.189C90.2954 138.508 89.8036 138.474 86.7844 136.232C84.9561 134.908 82.4286 132.7 81.1757 131.302L78.8152 128.878L80.9651 129.672C84.0398 130.835 87.3711 130.209 92.5516 127.298C95.1001 125.896 98.5364 124.575 100.262 124.352C103.618 123.918 111.302 126.045 114.297 128.095C116.004 129.24 116.196 129.215 116.035 127.968C115.923 127.105 114.98 125.083 113.965 123.264C109.435 115.368 100.483 110.968 93.5359 113.035C89.8831 114.19 88.8564 115.297 83.3984 123.606C81.0389 127.226 80.8595 127.346 78.0848 126.242C76.1267 125.423 74.1869 123.237 71.82 119.253C70.0317 115.975 68.5929 113.138 68.8558 112.909C69.0227 112.693 70.1518 113.132 71.4387 114.038C75.0829 116.589 80.5451 115.104 88.5801 109.386C92.4307 106.744 96.7019 104.34 98.1402 104.154C101.304 103.745 109.65 106.469 114.423 109.459L117.922 111.639L115.252 106.818C109.899 97.0782 104.541 91.8238 97.8161 89.5731C90.4663 87.0132 85.3289 88.7493 78.1633 95.9142C67.6298 106.439 65.0964 105.694 62.6628 91.3853L61.1735 82.1216L64.0134 84.4843C67.6236 87.5274 71.2548 86.9607 77.9755 82.3879C81.1085 80.2284 84.7952 78.5823 86.9047 78.3097C91.7949 77.6779 100.045 80.414 105.95 84.6228L110.677 88.009L109.665 83.9478C107.35 75.0833 101.976 68.9536 94.1097 66.1679C85.1391 63.135 77.0077 65.8429 71.129 73.9139C67.9809 78.22 64.5198 79.3496 62.7099 76.6589C61.9983 75.6785 61.3729 72.3473 61.2981 68.7499L60.9847 62.5513L64.5577 65.3067C66.5066 66.8097 68.8019 67.9754 69.569 67.8763C70.432 67.7648 73.9733 65.7475 77.5733 63.4301C83.0631 59.8938 85.29 59.0211 90.3719 58.3646C97.851 57.3983 103.926 59.148 108.585 63.5178C111.691 66.4311 111.787 66.4187 111.982 64.1514C112.71 57.7206 106.325 47.5298 99.4634 44.2243C88.949 39.0512 80.2762 41.3416 70.3056 51.696C63.941 58.2699 61.6953 57.4878 58.9686 47.7015C57.873 43.7487 56.6939 39.9041 56.1864 38.9948C55.546 37.8102 56.1337 37.8318 59.258 39.3778C64.5817 42.102 72.3484 41.0985 82.7623 36.4385C93.0926 31.8868 100.092 30.9825 105.308 33.6232L109.261 35.5495L108.165 31.5967C105.863 22.828 95.0542 16.1331 84.1911 16.5618C77.1048 16.7949 71.4292 18.893 63.1652 24.3476C52.7363 31.1542 52.6404 31.1666 47.2666 25.0369C44.6524 22.1576 42.5796 19.6958 42.5548 19.504C42.5301 19.3123 44.0394 18.9223 45.9324 18.4827C51.073 17.5261 55.1616 14.4632 59.4539 8.44946C66.3098 -1.11257 68.2922 -3.12344 71.5739 -4.13235L74.7473 -5.22475L71.2642 -6.52948C66.4602 -8.24847 58.0407 -8.52547 54.3167 -7.16696C48.5453 -5.05649 45.728 -1.96288 43.6319 4.44954C40.293 14.8245 38.5331 15.5393 29.6983 10.5391C21.1759 5.6936 10.6679 2.07945 1.0325 0.692219C-2.93919 0.133016 -6.69433 -0.259194 -7.26964 -0.184864C-7.84495 -0.110533 -7.93439 1.4608 -7.45769 3.64138L-6.60339 7.23547L-1.43475 7.25009C4.69275 7.14081 16.611 9.5979 22.7977 12.2106C27.6388 14.2172 28.6197 16.5276 26.514 20.6017C24.8721 23.7384 21.906 25.6814 12.9273 29.376C4.96606 32.6468 2.60015 34.7072 0.738935 39.9195C-0.553407 43.4985 0.898757 52.4745 3.47305 57.3087L4.98294 59.9407L6.21656 56.6618C6.86892 54.9202 8.77696 52.334 10.3542 50.9604L13.2583 48.538L12.8505 51.4178C12.3376 54.9935 13.6508 65.1574 14.9317 67.5265C15.8259 69.1657 16.1012 69.0327 17.372 66.0414C19.3447 61.6921 22.8612 59.483 32.5144 56.4811C43.5687 53.0057 47.2027 50.1965 49.6204 43.2551L51.5403 37.7428L53.0782 41.3461C58.8306 54.9333 59.1036 60.0648 54.1493 65.4817C51.0691 68.8042 48.8761 69.185 39.049 67.8226C30.0137 66.5528 25.9402 67.469 21.9167 71.7908C18.3355 75.763 16.5023 81.9465 17.2828 87.9873C18.2367 95.3704 19.1524 96.422 21.1747 92.4562C23.5897 87.7573 28.1114 85.0284 37.6472 82.6266C51.64 79.2589 55.2648 77.1333 58.0692 70.9219C59.4359 67.9182 59.5194 67.8099 59.8043 70.0153C59.9654 71.2618 60.1178 76.2139 60.0536 80.999C59.9932 89.5856 59.9344 89.8856 57.0519 91.7203C54.2653 93.5426 53.7735 93.5087 47.5189 91.8796C43.8812 90.8873 39.5136 90.2818 37.6918 90.5172C30.3086 91.4711 25.3672 100.006 25.5949 111.577L25.7289 117.897L29.6193 113.299C33.9272 108.161 37.614 106.515 45.5881 106.362C52.195 106.191 56.8158 104.229 58.8041 100.755C60.7461 97.6771 61.0957 98.1194 62.7208 105.416C64.6492 113.55 60.9538 118.902 50.1564 123.612C40.9271 127.631 37.6987 132.825 38.8509 141.743C39.4207 146.153 44.0371 154.72 47.9506 158.602C49.2994 159.987 49.454 159.675 49.1379 155.719C48.6822 149.928 50.5714 145.687 55.7918 140.821C62.7689 134.46 66.3561 129.025 66.9955 124.166C67.3694 121.778 67.8887 119.761 68.1764 119.724C69.5188 119.55 73.2781 126.766 74.3183 131.798C76.1384 139.85 75.6131 143.329 71.1818 150.531C66.5124 158.153 65.511 162.475 66.9039 168.729C67.9408 172.982 73.2004 180.491 75.0222 180.255C75.4058 180.206 75.7085 178.022 75.6617 175.396C75.5928 170.336 77.4971 163.948 80.676 158.371C83.224 153.947 83.2634 148.97 80.8345 144.507C79.7114 142.605 78.2322 138.702 77.477 135.875L76.1493 130.879L83.4036 136.474C92.511 143.583 92.9753 145.668 88.2789 158.363C83.7958 170.446 84.8887 176.641 92.7308 182.257L96.0749 184.749L95.4678 180.051C95.1457 177.558 95.5994 171.26 96.5853 166.064C98.4859 155.874 98.3151 152.29 95.7037 147.168C94.1319 144.056 94.1071 143.865 95.6445 144.446C99.8483 146.047 107.035 152.625 110.317 157.66C112.177 160.735 114.912 166.815 116.166 171.235C117.515 175.643 119.152 180.013 119.755 180.91C121.54 183.409 125.689 186.09 128.81 186.857L131.535 187.577L129.583 185.294ZM31.9453 37.7399C30.2409 37.3752 30.2161 37.1834 31.9108 35.2097C35.8136 30.7085 36.5765 23.7859 33.8137 19.756C30.4971 15.2127 36.4613 19.1215 42.7724 25.715C45.47 28.486 45.7609 29.2283 44.954 31.2823C43.2937 35.7862 36.7831 38.967 31.9453 37.7399Z" fill="#A9BFFB"/>
</g>
<defs>
<filter id="filter0_d" x="-12" y="-15.4722" width="153.193" height="225.7" filterUnits="userSpaceOnUse" color-interpolation-filters="sRGB">
<feFlood flood-opacity="0" result="BackgroundImageFix"/>
<feColorMatrix in="SourceAlpha" type="matrix" values="0 0 0 0 0 0 0 0 0 0 0 0 0 0 0 0 0 0 127 0"/>
<feOffset dy="4"/>
<feGaussianBlur stdDeviation="2"/>
<feColorMatrix type="matrix" values="0 0 0 0 0 0 0 0 0 0 0 0 0 0 0 0 0 0 0.25 0"/>
<feBlend mode="normal" in2="BackgroundImageFix" result="effect1_dropShadow"/>
<feBlend mode="normal" in="SourceGraphic" in2="effect1_dropShadow" result="shape"/>
</filter>
</defs>
</svg>
