<svg width="1416" height="300" viewBox="0 0 1416 300" fill="none" xmlns="http://www.w3.org/2000/svg" className="svg">
<g filter="url(#filter0_d)">
<path d="M159.128 213.932C157.469 212.063 156.045 207.507 154.33 198.944C151.223 183.394 148.354 179.483 134.317 171.212C128.83 167.98 124.46 165.184 124.662 164.927C125.367 164.029 143.026 165.833 146.724 167.097C150.799 168.544 155.494 172.917 160.026 179.621C161.759 182.058 163.433 184.041 163.78 183.997C164.938 183.85 160.382 164.441 158.282 161.01C153.848 153.254 142.366 150.089 131.405 153.558C128.238 154.538 122.554 156.067 118.546 156.922C111.689 158.485 111.095 158.444 107.45 155.787C105.242 154.219 102.19 151.602 100.677 149.945L97.8272 147.072L100.423 148.013C104.136 149.391 108.158 148.65 114.413 145.2C117.491 143.538 121.64 141.973 123.724 141.708C127.776 141.194 137.054 143.715 140.67 146.145C142.732 147.501 142.963 147.471 142.769 145.994C142.634 144.971 141.495 142.574 140.269 140.419C134.8 131.061 123.99 125.847 115.602 128.297C111.191 129.665 109.952 130.977 103.361 140.824C100.512 145.114 100.296 145.257 96.9452 143.949C94.5809 142.978 92.2387 140.386 89.3807 135.665C87.2213 131.78 85.484 128.419 85.8014 128.147C86.0031 127.891 87.3664 128.411 88.9203 129.485C93.3205 132.509 99.916 130.748 109.618 123.972C114.267 120.841 119.425 117.992 121.162 117.771C124.982 117.287 135.059 120.515 140.823 124.059L145.048 126.642L141.823 120.928C135.36 109.386 128.89 103.159 120.77 100.491C111.896 97.4574 105.692 99.5149 97.04 108.006C84.3211 120.479 81.2621 119.596 78.3236 102.639L76.5253 91.6602L79.9544 94.4603C84.3136 98.0667 88.6982 97.3951 96.8132 91.9759C100.596 89.4166 105.048 87.4657 107.595 87.1427C113.5 86.3939 123.461 89.6365 130.592 94.6244L136.3 98.6375L135.077 93.8245C132.282 83.319 125.793 76.0545 116.295 72.7532C105.463 69.1589 95.6447 72.368 88.5463 81.9331C84.745 87.0364 80.5659 88.3751 78.3804 85.1862C77.5212 84.0243 76.7661 80.0765 76.6758 75.8132L76.2973 68.4671L80.6116 71.7326C82.9649 73.5138 85.7364 74.8953 86.6627 74.7779C87.7047 74.6457 91.9807 72.255 96.3277 69.5086C102.956 65.3176 105.645 64.2834 111.782 63.5053C120.812 62.3601 128.148 64.4338 133.774 69.6125C137.524 73.0651 137.64 73.0504 137.875 70.3634C138.755 62.7421 131.044 50.6648 122.759 46.7474C110.063 40.6167 99.5913 43.3311 87.5521 55.6022C79.867 63.3932 77.1553 62.4662 73.8629 50.8683C72.54 46.1837 71.1163 41.6274 70.5036 40.5498C69.7302 39.146 70.4398 39.1715 74.2124 41.0038C80.6406 44.2322 90.0187 43.043 102.593 37.5204C115.067 32.1261 123.519 31.0543 129.816 34.1838L134.59 36.4668L133.267 31.7822C130.486 21.3903 117.435 13.4561 104.318 13.9641C95.7619 14.2404 88.9088 16.7269 78.9303 23.1912C66.3376 31.2578 66.2218 31.2725 59.7331 24.0081C56.5766 20.5958 54.0737 17.6783 54.0438 17.451C54.0139 17.2237 55.8364 16.7615 58.1221 16.2406C64.3293 15.1069 69.2662 11.477 74.449 4.35C82.7273 -6.98214 85.121 -9.36526 89.0835 -10.5609L92.9152 -11.8556L88.7095 -13.4018C82.9089 -15.439 72.7425 -15.7673 68.246 -14.1573C61.2771 -11.6561 57.8752 -7.98986 55.3443 -0.390374C51.3126 11.9052 49.1876 12.7523 38.5198 6.82653C28.2293 1.08398 15.5411 -3.19922 3.90671 -4.84325C-0.888989 -5.50597 -5.42322 -5.97079 -6.11789 -5.8827C-6.81256 -5.79461 -6.92056 -3.93239 -6.34495 -1.34814L-5.31342 2.91128L0.927579 2.9286C8.32636 2.7991 22.7173 5.71103 30.1876 8.80737C36.0331 11.1855 37.2175 13.9236 34.6749 18.7518C32.6923 22.4692 29.1109 24.7718 18.2693 29.1505C8.65637 33.0267 5.7996 35.4686 3.55224 41.6457C1.99177 45.8872 3.74522 56.5249 6.85361 62.254L8.67675 65.3732L10.1663 61.4873C10.954 59.4233 13.2579 56.3584 15.1624 54.7305L18.669 51.8597L18.1766 55.2726C17.5573 59.5103 19.1429 71.5556 20.6896 74.3633C21.7693 76.306 22.1017 76.1483 23.6362 72.6033C26.0182 67.4489 30.2643 64.8309 41.9202 61.2732C55.268 57.1544 59.656 53.8252 62.5752 45.5988L64.8935 39.0661L66.7505 43.3364C73.6963 59.4388 74.026 65.5203 68.0438 71.9399C64.3245 75.8775 61.6766 76.3289 49.8106 74.7142C38.9007 73.2093 33.9821 74.2952 29.1239 79.417C24.7997 84.1245 22.5861 91.4527 23.5285 98.6117C24.6803 107.362 25.786 108.608 28.2279 103.908C31.1439 98.3392 36.6037 95.1052 48.1179 92.2587C65.0138 88.2676 69.3907 85.7485 72.777 78.3872C74.4272 74.8275 74.528 74.6992 74.8721 77.3128C75.0665 78.7901 75.2505 84.6589 75.173 90.3298C75.1001 100.506 75.0292 100.861 71.5486 103.036C68.1838 105.195 67.59 105.155 60.0377 103.225C55.6453 102.049 50.3715 101.331 48.1718 101.61C39.2568 102.74 33.2901 112.855 33.5651 126.569L33.7269 134.058L38.4245 128.61C43.6262 122.52 48.0778 120.569 57.7063 120.388C65.684 120.185 71.2635 117.86 73.6644 113.743C76.0092 110.095 76.4314 110.619 78.3936 119.267C80.7221 128.907 76.26 135.25 63.2225 140.831C52.0784 145.595 48.1802 151.75 49.5713 162.318C50.2594 167.545 55.8336 177.698 60.559 182.298C62.1877 183.94 62.3743 183.57 61.9926 178.882C61.4424 172.019 63.7236 166.993 70.0271 161.226C78.4517 153.688 82.7831 147.246 83.5553 141.487C84.0067 138.657 84.6338 136.267 84.9811 136.223C86.602 136.018 91.1413 144.569 92.3972 150.533C94.595 160.075 93.9607 164.199 88.6101 172.733C82.9719 181.767 81.7627 186.888 83.4446 194.3C84.6966 199.34 91.0474 208.239 93.2472 207.96C93.7104 207.902 94.0759 205.314 94.0194 202.201C93.9362 196.204 96.2356 188.634 100.074 182.024C103.151 176.782 103.198 170.884 100.265 165.594C98.9093 163.34 97.1232 158.714 96.2114 155.364L94.6081 149.444L103.368 156.074C114.364 164.5 114.925 166.97 109.254 182.015C103.841 196.335 105.161 203.677 114.63 210.332L118.668 213.286L117.935 207.718C117.546 204.764 118.094 197.3 119.284 191.141C121.579 179.066 121.373 174.818 118.22 168.748C116.322 165.06 116.292 164.833 118.148 165.522C123.224 167.42 131.902 175.215 135.865 181.183C138.11 184.826 141.413 192.032 142.927 197.27C144.556 202.494 146.533 207.673 147.261 208.736C149.417 211.698 154.426 214.875 158.194 215.784L161.485 216.637L159.128 213.932ZM41.233 39.0626C39.175 38.6304 39.1451 38.4031 41.1914 36.064C45.904 30.7296 46.8251 22.5255 43.4891 17.7496C39.4844 12.3653 46.686 16.9976 54.3065 24.8118C57.5638 28.0957 57.915 28.9754 56.9407 31.4097C54.9359 36.7473 47.0746 40.5169 41.233 39.0626Z" fill="#A9BFFB"/>
</g>
<path d="M211.203 140.274C214.018 138.827 221.45 140.729 230.958 145.415C244.934 152.199 255.365 154.434 261.83 151.884C270.804 148.373 273.119 142.377 269.955 130.169C267.662 120.957 267.662 117.836 270.058 115.156C272.265 112.686 274.43 112.677 277.513 115.329C283.678 120.634 284.546 134.986 279.413 146.545C278.301 149.208 277.766 151.368 278.313 151.464C280.639 151.843 287.78 148.252 291.409 144.76C297.28 139.328 299.705 132.927 299.161 124.596C298.704 117.588 297.141 114.371 289.524 104.447C283.616 96.8674 284.788 88.8888 291.95 87.6875C294.493 87.2547 295.47 87.7216 299.413 91.1143C309.028 99.5124 313.932 119.707 309.789 133.99C308.791 137.376 308.244 140.4 308.531 140.646C309.4 141.519 317.135 137.69 320.655 134.604C324.887 131.005 328.518 123.396 328.912 116.996C329.307 110.596 326.588 103.138 321.672 97.2866C316.757 91.4346 315.733 88.182 318.129 85.5012C320.526 82.8205 323.175 82.9783 325.61 86.0717C328.188 89.2886 332.563 102.414 333.522 109.854C333.935 113.08 334.583 115.76 334.853 115.742C336.201 115.653 343.733 103.538 346.066 97.8073C354.73 76.0562 349.931 50.2103 335.316 40.8794C330.017 37.4431 319.909 34.9869 313.997 35.6413L308.894 36.2425L310.23 33.8971C310.889 32.5921 313.27 25.53 315.428 18.1506C317.657 10.8328 320.959 2.31578 322.719 -0.787916L325.949 -6.24589L323.165 -6.39482L320.39 -6.41151L318.037 3.17188C315.911 12.0764 309.455 31.3584 308.068 32.9104C307.689 33.3337 306.08 30.4515 304.411 26.6437C292.485 -0.59262 271.149 -6.09523 245.907 11.5005C242.154 14.1376 238.995 16.5365 239.084 16.8627C239.101 17.1272 240.951 17.4703 243.196 17.6547C262.575 19.1028 282.59 34.4529 275.464 42.4247C272.311 45.952 268.864 44.9834 259.748 38.0133C249.359 30.1973 245.098 28.1535 239 28.0233C232.03 28.0169 227.064 30.7338 221.764 37.6558C217.519 43.1141 212.904 52.2487 213.908 53.1123C214.267 53.4207 216.873 52.9174 219.866 52.1229C226.904 50.0665 242.634 49.497 250.983 50.94C259.261 52.3213 269.589 56.0909 272.743 58.8051C276.901 62.3828 275.322 68.2634 270.05 68.3445C268.765 68.3626 261.783 66.0993 254.695 63.2454C239.2 57.0268 234.515 55.7412 227.158 56.0258C213.711 56.3124 204.102 65.6426 205.77 76.6881C206.034 78.6627 206.702 80.6107 207.132 80.9808C207.634 81.4126 209.89 80.7331 212.256 79.648C221.564 75.0519 238.26 75.8132 240.555 80.9079C242.6 85.2886 238.715 86.9384 230.42 85.2927C221.236 83.5062 212.306 87.679 208.035 95.8614C205.507 100.676 205.362 104.669 207.621 106.114C208.608 106.713 213.665 106.447 219.551 105.396C225.168 104.363 231.16 103.902 232.82 104.457C235.639 105.135 235.863 105.452 236.098 108.026C236.208 110.742 236.153 110.944 233.358 111.659C231.695 112.101 228.983 112.013 227.322 111.459C220.825 109.363 212.726 111.754 209.802 116.727C207.979 119.902 207.965 121.762 209.833 128.611C210.722 131.872 211.061 136.033 210.634 137.788C209.981 140.221 210.087 140.812 211.203 140.274ZM233.677 136.273C234.44 133.434 239.645 128.178 243.08 126.889C245.787 125.848 248.663 128.448 248.259 131.595C247.873 135.007 242.386 141.145 239.052 141.895C235.591 142.787 232.824 139.781 233.677 136.273ZM246.393 120.629C247.368 118.972 250.33 119.773 250.459 121.756C250.589 123.74 247.756 124.922 246.575 123.406C245.984 122.648 245.906 121.458 246.393 120.629ZM266.22 106.112C265.967 103.273 267.372 101.986 269.984 102.611C274.167 103.465 272.669 109.539 268.486 108.685C267.462 108.554 266.502 108.351 266.43 108.289C266.358 108.228 266.226 107.24 266.22 106.112ZM245.479 86.8921C245.888 84.8732 249.753 83.955 251.545 85.4972C253.481 87.1627 253.223 89.4372 250.93 90.584C249.554 91.2721 245.232 88.3027 245.479 86.8921ZM229.922 40.3066C229.629 38.9315 230.154 37.6354 231.567 36.48C233.485 34.7603 233.961 34.7955 236.183 36.7077C238.405 38.6199 238.503 39.0783 237.015 41.1681C235.591 43.1874 232.328 43.9995 230.823 42.7041C230.607 42.5191 230.197 41.4173 229.922 40.3066ZM308.66 76.2303C308.333 74.3263 308.668 73.2418 310.036 72.4215C313.49 70.4016 318.007 74.2878 316.927 78.4755C316.571 80.2917 315.987 80.6621 313.679 80.5483C310.221 80.4437 309.217 79.5801 308.66 76.2303ZM301.9 64.9221C302.605 63.2822 305.716 62.2144 306.863 63.2014C308.297 64.4351 307.956 67.5119 306.319 68.3499C304.682 69.188 301.33 66.5532 301.9 64.9221ZM332.358 81.644C330.405 76.5933 329.989 74.3631 330.935 73.3049C332.953 71.0474 336.259 74.0172 339.357 81.051C342.053 87.1153 342.137 89.4338 339.582 90.7305C337.423 91.8685 335.212 89.0923 332.358 81.644ZM289.787 33.7805C291.266 31.5585 294.03 32.4391 294.211 35.216C294.395 36.9967 294.017 37.42 292.408 37.6585C289.73 38.1002 288.308 36.0026 289.787 33.7805ZM277.622 21.5661C276.722 19.1686 276.119 16.1538 276.311 14.946C276.649 12.8654 276.964 12.5127 278.985 12.3797C282.022 12.2465 286.32 16.9438 288.46 22.779C292.321 33.2155 281.896 32.1082 277.622 21.5661ZM316.285 46.8452C317.035 44.8703 322.426 44.5158 326.463 46.2423C333.416 49.1051 345.561 62.0512 344.716 65.6923C344.326 66.9795 343.561 67.6939 342.159 67.9853C340.424 68.3649 339.581 67.8892 337.02 64.9368C329.928 56.8376 326.622 53.8678 322.585 52.1413C317.022 49.8511 315.66 48.6791 316.285 46.8452Z" fill="#FFB9D2"/>
<path d="M496.32 208.183C498.024 204.607 501.104 199.064 503.397 195.824C505.689 192.469 508.068 186.935 508.839 183.486C509.61 180.036 510.389 177.16 510.623 177.157C511.441 177.146 516.781 183.268 519.403 187.132C521.906 190.768 522.07 194.32 520.036 199.391C519.129 201.467 519.247 201.58 521.096 200.066C523.869 197.737 526.369 192.545 526.321 188.991C526.264 184.75 523.639 180.657 517.484 174.775C512.633 170.252 512.035 169.228 511.973 164.642C511.904 159.484 511.904 159.484 513.808 162.096C514.88 163.573 519.121 166.155 523.115 167.823C530.871 171.162 534.304 174.442 534.364 178.913C534.417 182.81 536.378 180.95 537.132 176.24C538.327 169.574 534.987 164.459 527.233 161.234C523.591 159.791 518.891 157.788 516.776 156.898C513.487 155.565 509.676 150.226 510.943 148.834C511.173 148.602 513.167 149.149 515.398 150.037C517.629 150.811 521.966 151.901 525.243 152.317C532.85 153.251 537.203 155.487 539.95 159.923L542.336 163.561L542.278 159.319C542.139 149.003 537.537 145.623 522.456 144.901C516.494 144.635 511.227 143.9 510.633 143.22C510.041 142.655 509.082 140.833 508.707 139.003C507.848 135.919 507.965 135.917 511.134 137.022C513.247 137.798 518.273 137.962 524.458 137.423C533.909 136.498 534.612 136.603 538.856 139.415C543.335 142.337 543.335 142.337 542.6 139.825C541.502 136.399 538.659 133.455 535.961 132.688C534.67 132.246 533.722 131.226 533.708 130.195C533.695 129.278 531.909 126.779 529.66 124.629C525.755 120.897 525.403 120.786 515.824 120.911C503.792 121.067 501.448 120.524 499.765 116.991C497.6 112.434 498.063 112.084 503.692 113.616C507.21 114.602 512.238 114.881 518.541 114.455C529.279 113.628 533.034 114.84 535.55 119.508L537.107 122.354L537.065 119.259C537.008 115.018 531.794 109.582 526.635 108.159C524.291 107.616 517.975 107.125 512.718 107.193C500.336 107.353 493.997 105.143 491.707 99.8984C490.744 97.8472 490.017 95.9076 490.014 95.6783C490.011 95.4491 492.478 96.4489 495.535 97.8997C501.416 100.804 505.156 100.871 523.465 98.3401C531.396 97.3201 537.496 99.1901 540.597 103.851L542.981 107.374L542.226 103.371C541.728 101.084 539.697 97.7857 537.328 95.4088C535.078 93.1449 533.175 90.6473 533.164 89.8449C533.153 89.0425 532.546 87.3306 531.71 85.9657C530.874 84.6007 530.24 80.9401 530.08 77.732C529.861 70.1679 526.506 63.9056 520.732 60.3117C516.49 57.6151 514.616 57.2954 501.874 56.7728C486.679 56.2819 483.043 55.1825 477.592 49.5207C473.92 45.7849 472.541 38.8091 473.712 30.3098L474.452 24.5677L476.035 29.3625C477.989 35.6429 486.876 44.8143 493.101 47.2559C495.801 48.2528 504.117 49.75 511.49 50.6863C529.393 52.7471 534.682 55.0862 540.643 63.9516C541.836 65.7706 542.064 65.309 542.003 60.8384C542.078 49.0285 533.238 43.296 511.712 41.1674C504.224 40.3473 496.38 39.1879 494.387 38.6405C488.284 36.6559 481.318 31.243 477.854 25.5554C474.748 20.5511 474.624 19.9795 475.958 14.9175C477.955 7.09543 483.184 -3.74948 487.326 -8.50385C489.281 -10.8222 490.885 -13.136 490.876 -13.8238C490.863 -14.7408 488.272 -16.3123 486.753 -16.2926C485.352 -16.2745 476.818 0.689771 474.119 8.52098C472.435 13.5874 470.283 18.6599 469.249 19.9345C465.568 24.2243 456.99 29.2655 442.006 35.7655C433.644 39.4281 424.243 44.136 421.236 46.3534C410.701 53.5983 405.813 63.6362 407.134 74.9695C408.186 83.6693 409.85 85.826 409.867 78.3735C409.879 70.5772 414.203 62.037 421.13 55.8707C424.133 53.3095 433.75 47.3376 442.685 42.7504C451.733 37.9324 461.234 32.0767 464.466 29.1685L470.122 24.0506L469.603 28.8726C468.24 40.47 461.791 47.4326 444.381 55.9132C436.371 59.8005 430.348 63.662 428.392 65.8658C419.883 76.0653 416.865 86.1937 420.235 93.4876L422.041 97.4769L422.095 92.7756C422.113 85.4377 425.282 77.8297 430.805 71.567C434.835 67.158 438.888 64.4685 449.333 59.2885C457.922 55.0497 463.482 51.5381 465.089 49.3389C466.464 47.372 467.963 45.8621 468.547 45.8545C469.014 45.8485 469.523 48.9374 469.575 52.8349C469.702 62.2345 466.82 65.1382 453.324 69.3259C437.036 74.4671 428.525 84.4374 427.556 99.2398C427.178 105.894 427.181 106.124 428.173 101.639C430.364 90.8339 436.933 84.0991 452.722 76.6714C459.687 73.3708 464.667 70.0961 467.083 67.3131C470.996 62.9057 471.23 62.9026 472.581 67.8151C473.691 72.1574 468.97 77.2632 461.877 79.7628C445.13 85.4832 434.799 99.1459 435.479 114.959C435.636 117.938 436 118.965 436.212 117.357C438.368 103.915 444.91 95.2313 458.488 88.4056C466.726 84.1713 473.424 78.352 473.382 75.257C473.372 74.4545 473.84 74.5631 474.555 75.5857C477.892 80.4724 473.807 89.4681 466.956 92.5378C453.483 98.445 448.265 101.379 446.2 104.272C441.382 110.87 439.984 119.83 442.756 126.1C444.084 129.293 444.084 129.293 444.944 123.779C446.55 112.866 452.645 105.679 466.905 97.4684C470.963 95.1228 475.239 91.6279 476.614 89.661L479.018 85.961L480.458 88.8086C482.144 92.5702 482.155 93.3726 479.999 98.1012C478.519 100.987 475.748 103.43 469.024 107.301C454.071 116.094 446.97 126.733 449.217 137.367C450.09 141.483 452.077 141.572 452.023 137.56C451.931 130.682 458.704 121.766 472.575 110.694C477.198 106.966 481.927 102.433 482.953 100.585L485.011 97.2336L487.176 101.792C488.98 105.666 489.113 106.811 487.868 109.808C487.076 111.767 484.773 114.205 482.801 115.262C480.829 116.32 475.612 119.368 471.329 122.29C462.989 127.672 459.095 133.455 459.071 140.335C459.128 144.576 460.992 144.208 461.866 139.725C462.954 133.749 467.45 129.219 477.657 123.699C484.383 119.943 487.968 117.259 489.45 114.488L491.735 110.675L493.289 113.292C494.127 114.772 494.857 116.94 494.988 117.971C495.023 120.607 489.122 124.811 479.594 128.718C472.624 131.675 468.348 135.17 468.385 137.921C468.391 138.379 469.785 137.788 471.52 136.504C473.372 135.219 477.903 133.326 481.743 132.13C489.425 129.966 491.971 128.214 495.171 122.898L497.344 119.431L497.395 123.213C497.505 131.352 491.748 137.618 481.042 140.852C472.2 143.604 466.649 147.803 464.387 153.336C462.011 159.099 462.49 160.01 466.061 156.18C469.631 152.351 475.662 149.062 484.733 145.964C491.945 143.577 499.339 137.405 500.445 132.804L501.221 129.699L502.908 133.46C504.354 136.766 504.366 137.684 502.888 140.684C500.838 144.608 497.126 146.605 488.275 148.669C484.314 149.523 480.831 151.173 479.565 152.566C477.378 155.002 477.378 155.002 479.703 154.169C480.982 153.694 484.941 152.725 488.438 152.107C496.361 150.513 499.489 148.524 502.687 143.094C504.514 139.975 505.324 139.391 505.578 140.878C505.825 141.907 504.928 144.67 503.556 146.866C501.498 150.218 498.37 152.207 488.04 157.271C480.961 160.802 474.235 164.558 473.201 165.833C470.437 168.85 467.728 175.878 467.779 179.661C467.817 182.527 468.05 182.409 471.139 177.554C474.569 172.006 477.923 169.441 490.572 163.085C499.623 158.497 502.514 156.281 505.488 151.542L507.546 148.19L508.525 151.502C509.872 156.071 506.998 159.548 498.071 164.708C490.535 169.048 485.248 175.537 485.316 180.58L485.35 183.102L489.518 180.297C491.833 178.661 494.503 177.366 495.554 177.352C497.89 177.322 506.236 172.398 506.218 171.023C506.21 170.45 506.557 170.216 506.912 170.555C507.267 170.894 504.881 175.855 501.684 181.4C494.953 193.411 492.376 201.584 492.945 209.144L493.369 214.642L496.32 208.183ZM505.905 130.441C502.935 126.81 504.212 126.22 513.445 126.445C522.212 126.79 531.356 129.079 529.858 130.589C528.706 131.865 515.991 133.291 511.544 132.775C509.322 132.575 506.736 131.462 505.905 130.441ZM495.206 90.7957C487.33 87.229 485.556 85.6469 483.386 80.6304C481.34 76.1856 481.667 74.4616 484.145 76.2639C486.741 78.1793 493.189 79.8154 504.311 81.5056C516.484 83.1822 524.344 85.6026 527.654 88.4259C529.781 90.2327 529.549 90.3504 523.609 91.6886C512.31 94.2427 501.791 93.9205 495.206 90.7957ZM510.208 76.9578C497.209 74.7187 489.233 72.4145 483.58 69.0483C478.751 66.13 477.439 64.1979 476.076 58.3684L475.204 54.367L479.108 57.9852C484.311 62.6184 489.479 64.6151 498.955 65.524C514.746 66.9244 522.507 70.6072 527.062 79.1469C528.38 81.6521 528.38 81.6521 524.622 80.2104C522.507 79.3206 515.946 77.9152 510.208 76.9578Z" fill="#EA3556"/>
<path d="M584.132 -3.19249C588.256 0.0338998 596.303 7.50069 602.036 13.4004C607.77 19.3001 612.598 24.1857 612.698 24.1857C612.9 24.1857 615.615 22.8952 618.733 21.4203C626.881 17.4564 627.987 17.733 624.668 22.803C623.26 25.1076 622.354 26.9512 622.757 26.9512C623.159 26.9512 625.875 25.0154 628.892 22.7108C633.72 18.8391 634.726 18.4704 638.146 18.9313C640.158 19.1157 643.376 19.9453 645.288 20.6828L648.707 21.8812L644.483 24.6466C642.169 26.0294 639.856 27.9652 639.253 28.887C638.448 30.362 639.152 30.2698 647.098 28.3339C653.234 26.859 656.452 26.4903 657.659 27.0434C659.671 28.0574 659.973 29.348 658.464 30.1776C657.961 30.4541 656.955 31.5603 656.352 32.6665C655.346 34.3258 655.547 34.418 658.162 33.9571C663.393 32.9431 666.209 34.418 671.54 41.1473C674.256 44.6503 676.569 48.2454 676.569 49.1672C676.569 50.089 672.345 54.8825 667.215 59.676C662.085 64.4695 658.062 68.4333 658.363 68.4333C659.269 68.4333 668.221 63.4555 674.256 59.5838C677.676 57.3715 681.297 55.5278 682.302 55.5278C684.918 55.62 673.25 65.3913 663.393 71.291C656.251 75.6236 653.234 78.2969 656.654 77.1907C663.393 75.0705 688.941 69.4474 689.645 69.8161C692.763 71.5676 687.131 75.9923 675.563 80.7858C668.522 83.6435 669.729 83.7357 681.598 80.878C697.491 77.0985 698.597 77.9282 686.326 84.2887C681.8 86.6855 675.06 89.9119 671.238 91.3868C664.801 94.0601 663.393 95.3507 665.404 96.4568C665.907 96.8256 669.83 95.8116 674.155 94.2445C678.48 92.7695 682.101 91.6634 682.302 91.8477C682.504 91.9399 680.391 93.2305 677.575 94.6132C674.859 95.9959 672.546 97.2865 672.546 97.4709C672.546 98.3005 680.693 95.6272 687.633 92.5852C691.757 90.7415 695.58 89.0822 696.183 88.8979C696.686 88.7135 694.674 90.9259 691.657 93.7836L686.125 99.1301L694.976 94.7976C699.905 92.3086 704.029 90.5572 704.23 90.7415C704.532 90.9259 704.33 92.3086 703.928 93.6914C703.325 95.7194 701.212 97.3787 695.177 100.789C690.752 103.186 684.515 106.136 681.397 107.334C676.066 109.27 674.256 110.93 676.368 112.128C676.871 112.404 683.007 110.561 690.047 108.072C697.088 105.491 703.224 103.463 703.727 103.463C704.129 103.463 704.833 104.2 705.236 105.03C706.241 107.703 697.792 112.681 682.604 118.396L678.078 120.148L684.616 119.595C688.237 119.318 694.875 118.212 699.502 117.198C704.129 116.184 708.052 115.446 708.253 115.631C708.454 115.815 709.259 118.581 710.064 121.715L711.572 127.615L707.348 129.182C705.135 130.103 700.508 131.763 697.29 133.053L691.355 135.266L701.816 135.542C707.549 135.634 712.578 136.095 713.081 136.556C713.484 136.925 711.673 138.031 709.058 138.953C702.017 141.35 701.615 142.179 707.247 142.179C710.064 142.179 712.779 142.548 713.383 142.917C713.986 143.286 714.791 146.235 715.193 149.462L715.898 155.361L709.36 154.901C705.739 154.624 702.721 154.532 702.721 154.716C702.721 154.901 705.638 156.283 709.259 157.758C712.88 159.233 715.797 160.985 715.797 161.446C715.797 162.736 715.797 162.736 704.733 160.155C699.502 158.957 695.177 158.035 694.976 158.219C694.875 158.311 699.704 160.616 705.739 163.381C717.105 168.544 717.909 169.281 715.998 173.706C715.395 175.181 714.59 174.904 709.259 171.586C698.999 165.317 698.295 165.041 696.787 167.253C695.58 169.097 696.082 169.742 704.33 176.84C712.88 184.215 713.182 184.583 711.472 186.15C709.661 187.718 709.46 187.718 706.543 184.583L703.526 181.357L704.23 184.583C704.632 186.335 705.135 188.639 705.437 189.746C706.04 192.05 702.52 193.709 695.58 194.447L690.852 195L691.254 186.335L691.657 177.67L689.343 185.505C687.03 192.972 686.829 193.341 684.214 193.156C682.705 193.064 679.888 192.05 677.977 190.944C674.558 189.008 674.356 188.732 674.96 185.321C675.362 183.293 677.173 178.131 679.084 173.706C682.906 165.041 682.906 165.041 676.167 172.968C673.652 176.01 671.54 178.223 671.54 178.038C671.54 177.762 672.646 174.904 674.055 171.678C675.463 168.451 676.569 165.409 676.569 164.948C676.569 164.395 674.055 167.622 670.936 172.047L665.203 180.066L662.99 176.563L660.677 173.153L663.694 165.225C667.114 156.468 671.138 148.724 676.267 141.442C678.983 137.478 679.184 136.741 677.575 137.57C674.155 139.23 664.801 150.291 660.677 157.666L656.754 164.58L653.033 154.532C651.021 149.001 649.411 143.839 649.411 143.101C649.411 141.626 656.754 132.685 665.505 123.559C669.931 118.949 670.434 118.12 668.02 119.502C662.89 122.452 651.423 131.21 649.009 134.16C646.696 136.833 646.595 136.833 645.489 135.081C644.684 133.514 644.785 132.685 646.394 130.841C649.11 127.707 648.909 126.693 646.092 129.089L643.678 131.117L640.46 126.416L637.241 121.623L639.856 118.212C642.874 114.156 654.642 103.647 658.766 101.158C660.275 100.236 661.381 99.3145 661.079 99.1301C660.275 98.3005 650.719 103.371 645.992 107.242C641.365 111.022 641.164 111.114 642.672 108.441C643.578 106.873 646.193 103.371 648.506 100.605C653.334 95.0741 652.831 95.3507 639.655 105.583L630.401 112.773L624.265 105.122L618.13 97.4709L622.455 93.8757C629.094 88.437 638.046 83.0904 645.288 80.3249C648.909 78.9422 652.027 77.2829 652.228 76.7298C652.53 75.9923 651.926 75.808 650.317 76.2689C645.589 77.6516 631.709 83.92 623.964 88.0682C615.314 92.7695 614.207 93.1383 614.207 90.9259C614.207 88.9901 623.058 81.2467 631.709 75.7158C637.241 72.0285 638.146 71.1988 635.833 71.6597C631.005 72.6738 620.343 77.3751 615.112 80.878L610.284 84.0122L608.574 79.7718C607.267 76.822 607.066 75.1627 607.87 74.0565C609.781 71.1988 618.733 65.5757 627.786 61.5197C632.715 59.3073 635.933 57.4636 634.827 57.3714C629.999 57.3714 619.337 59.4917 612.497 61.8884L605.155 64.5617V58.2011V51.9327L609.882 48.9828C612.598 47.3235 615.816 45.2034 617.225 44.1893L619.739 42.3457L616.219 42.991C605.255 44.9268 605.155 44.9268 605.155 42.3457C605.155 40.5942 606.462 39.2115 610.687 36.6304C613.704 34.6945 616.219 32.9431 616.219 32.7587C616.219 32.2978 611.391 33.1274 607.77 34.0493C606.06 34.5102 606.16 34.0493 608.474 30.1776C611.19 25.845 611.19 25.845 609.278 23.3561C605.255 18.1939 589.765 5.47266 581.115 0.31044L572.062 -5.12833L574.376 -7.06416L576.689 -9L584.132 -3.19249Z" fill="#34F1B5"/>
<path d="M841.158 218.483C833.987 208.905 831.638 204.297 826.816 191.082C824.838 185.262 822.737 179.927 822.242 179.079C821.871 178.351 821.377 184.05 821.253 191.809C821.129 199.569 820.511 208.42 819.893 211.451L818.78 216.907L817.297 211.451C815.071 203.812 815.318 187.566 817.791 179.321C820.758 169.016 818.904 166.591 815.195 176.048C813.588 180.291 810.126 187.687 807.653 192.416L802.955 201.145L802.337 193.87L801.719 186.596L799.493 190.233L797.268 193.87L797.762 187.081C798.01 183.444 799.493 177.866 801.1 174.593C804.068 168.531 812.969 158.346 814.206 159.68C814.577 160.044 813.711 162.953 812.228 166.106L809.631 171.925L813.093 169.016C814.948 167.318 816.678 165.984 816.802 165.863C817.42 165.742 814.082 153.254 813.464 153.254C813.093 153.254 810.62 156.891 807.9 161.256C803.202 168.773 785.522 186.96 784.162 185.626C783.05 184.535 787.501 167.803 790.221 162.468C791.581 159.801 796.897 153.496 801.842 148.647C810.744 140.16 810.868 139.796 810.002 135.431L809.013 130.945L803.326 138.22C797.515 145.616 777.733 164.651 776.744 163.802C775.508 162.59 781.937 149.132 786.264 143.676C791.457 137.25 795.166 134.34 803.326 130.339C807.159 128.399 808.519 127.065 808.519 124.883C808.519 120.154 807.159 120.397 799.988 126.702C793.435 132.521 777.115 141.251 769.821 142.827C766.73 143.554 766.483 143.433 767.595 141.251C768.337 140.038 771.304 137.007 774.148 134.582C778.846 130.581 779.093 130.339 775.879 131.43C773.901 132.158 772.17 132.521 771.923 132.279C771.552 132.036 773.406 129.248 775.879 126.095C781.072 119.306 792.322 111.91 800.359 109.606C806.046 108.03 806.046 108.03 806.046 102.574V97.1181L800.606 102.089C790.839 110.94 781.072 115.547 768.337 117.487L763.392 118.336L769.326 112.637L775.261 106.939L770.192 107.788C767.101 108.273 765.246 108.151 765.246 107.303C765.246 105.363 779.712 94.4508 787.13 90.8135C790.962 88.9948 796.65 86.8124 799.988 85.8425C805.057 84.3876 806.046 83.5389 806.046 81.114C806.046 78.2041 805.922 78.2041 799.122 82.9326C795.29 85.4788 788.737 88.7523 784.657 90.086C776.621 92.6321 762.774 94.8145 764.257 93.2383C764.752 92.7534 769.697 89.9648 775.384 86.9337C781.072 84.0238 784.533 81.8414 783.173 82.3264C779.835 83.4176 767.101 86.085 760.919 87.1762L755.974 87.9036L761.661 82.6902C768.584 76.3855 780.33 60.2601 777.115 61.4725C775.879 61.9575 772.664 62.685 769.821 63.1699L764.752 63.8974L766.977 60.6238C768.09 58.8052 768.955 56.9865 768.584 56.744C768.337 56.5016 765.741 57.1078 762.774 58.0777C759.93 59.0477 757.334 59.8964 756.963 59.8964C755.232 59.8964 762.155 51.2881 768.584 45.4684C777.61 37.3451 787.624 32.0104 804.315 26.5544C813.217 23.7658 816.555 22.0684 817.297 20.1285C818.162 17.8249 817.544 18.0674 809.384 21.8259C804.439 24.1295 796.526 26.7969 791.828 27.7668C782.926 29.5855 766.977 29.9492 761.537 28.4943C758.817 27.7668 759.312 27.2819 766.483 24.4933C779.341 19.5223 803.573 13.8238 812.104 13.8238C818.286 13.8238 819.893 13.4601 820.511 11.7627C820.882 10.5503 822.86 5.57927 824.838 0.850777C828.3 -7.39378 828.795 -8 832.256 -8H835.965L833.74 -4.60518C832.504 -2.78653 829.66 2.18446 827.435 6.54922C823.726 13.7026 823.602 14.5513 825.58 15.2788C854.882 26.4332 874.292 36.2539 885.172 45.4684L889.499 49.1057L883.318 48.257C868.481 46.3171 850.06 37.4663 833.246 24.1295C827.929 19.886 823.231 16.7337 822.86 17.2187C820.882 19.0373 822.613 21.9471 826.816 24.1295C829.289 25.4632 837.325 32.2528 844.496 39.285C851.791 46.3171 861.434 55.0466 866.009 58.5627C870.707 62.2 873.798 65.4736 873.056 65.7161C871.078 66.3223 852.78 60.2601 844.991 56.5016C836.955 52.6218 829.042 47.1658 822.489 41.3461C819.646 38.8 817.173 37.2238 816.802 37.7088C816.431 38.1938 815.813 41.1036 815.318 44.1347L814.577 49.5907L823.602 51.6518C835.842 54.5617 850.554 61.9575 861.063 70.4446C870.831 78.3254 870.089 79.6591 857.973 75.658C846.474 71.8995 832.133 64.5036 822.737 57.4715C818.162 54.0767 814.329 51.4093 814.082 51.6518C813.958 51.8943 813.464 55.0466 812.969 58.8052L812.228 65.5948L820.017 66.4435C835.347 67.8984 852.285 73.9606 865.638 82.6902C871.82 86.6912 869.841 88.0249 859.58 86.9337C855.253 86.5699 851.791 86.5699 851.791 86.9337C851.791 87.2974 853.645 88.6311 855.871 90.086L859.827 92.6321H853.151H846.351L851.791 96.6332C856.86 100.149 857.107 100.513 854.387 100.877C849.318 101.604 834.853 97.3606 822.737 91.5409L810.868 85.8425L811.238 90.086C811.609 94.3295 811.733 94.3295 819.646 95.9057C830.402 98.0881 844.62 102.817 853.027 107.181L859.827 110.697L853.522 110.819C841.653 110.819 826.446 105.969 814.453 98.2093L810.991 96.0269V101.968V107.909L821.253 109.364C829.166 110.455 834.111 112.152 844.373 117.123C855.5 122.579 856.86 123.549 853.769 123.913C848.453 124.519 832.751 120.761 821.624 116.153C810.126 111.304 810.991 111.546 810.991 113.728C810.991 114.698 813.093 116.153 815.689 117.002C821.253 118.821 824.715 120.882 832.256 126.823C835.347 129.369 841.035 132.521 844.867 133.855C856.118 137.613 857.107 138.583 849.565 138.705H843.136L845.238 141.978C847.464 145.252 847.34 145.252 839.056 140.766C834.482 138.22 827.806 135.189 824.22 133.855C820.758 132.642 816.802 131.309 815.689 130.824C813.958 130.096 813.464 130.581 813.464 133.006C813.464 135.552 814.206 136.159 818.162 136.886C825.457 138.098 842.024 146.585 848.082 151.92C853.522 156.891 853.645 156.891 849.936 156.164C846.474 155.436 846.722 155.679 851.791 159.074C854.882 161.135 858.714 163.923 860.445 165.257L863.536 167.803H859.827C857.725 167.803 852.162 166.712 847.464 165.499C842.765 164.166 838.685 163.196 838.562 163.438C838.438 163.56 842.271 167.682 847.216 172.774C860.816 186.596 860.692 186.232 852.903 184.05C849.194 182.959 844.373 181.382 842.024 180.412C837.944 178.715 838.067 178.836 844.249 184.898C847.711 188.293 851.667 193.143 853.151 195.81L855.623 200.66L852.78 199.205C846.474 195.932 838.438 189.991 830.896 183.08C824.591 177.139 823.231 176.29 823.973 178.715C824.344 180.412 827.558 185.747 831.02 190.597C837.449 199.811 844.496 213.633 846.598 221.514C847.34 223.939 847.587 226 847.34 226C847.093 226 844.249 222.605 841.158 218.483ZM828.3 172.532C822.86 168.288 820.882 167.439 820.882 169.622C820.882 170.592 822.737 172.168 824.962 173.138C830.649 175.563 831.886 175.441 828.3 172.532ZM823.973 160.528C820.882 157.861 818.038 155.679 817.791 155.679C817.544 155.679 817.915 157.497 818.533 159.559C819.151 161.741 819.646 163.681 819.646 163.802C819.646 164.045 824.715 165.015 827.435 165.257C828.918 165.378 827.806 163.681 823.973 160.528ZM811.733 149.01C813.093 145.737 811.486 144.524 810.002 147.677C809.137 149.617 809.013 150.829 809.878 150.829C810.497 150.829 811.362 149.98 811.733 149.01ZM822.613 144.888C815.195 140.038 813.835 140.038 815.195 145.373C815.813 147.798 816.926 148.404 821.253 148.768C824.097 149.01 827.187 149.253 828.176 149.374C829.042 149.495 826.569 147.434 822.613 144.888ZM819.646 127.429C819.646 127.187 818.038 125.489 815.937 123.549L812.228 120.033V123.185C812.228 126.338 812.598 126.58 818.78 127.672C819.275 127.672 819.646 127.672 819.646 127.429ZM807.035 116.153C807.282 116.032 807.282 114.698 807.035 113.244C806.664 110.697 806.54 110.819 802.955 114.456L799.246 118.336L802.955 117.366C805.057 116.881 806.788 116.396 807.035 116.153ZM800.606 97.3606C805.675 96.0269 806.046 95.7845 806.046 91.7834V87.5399L800.977 91.6622C791.086 99.4218 790.344 100.27 792.941 99.4218C794.177 98.9368 797.639 98.0881 800.606 97.3606ZM820.882 83.6601C820.882 83.1751 812.475 78.0829 811.486 78.0829C811.238 78.0829 810.991 79.1741 810.991 80.3865C810.991 82.6902 812.104 83.1751 819.398 84.0238C820.14 84.0238 820.882 83.9026 820.882 83.6601ZM799.864 77.5979C806.046 76.2642 806.664 75.7793 807.035 72.5057C807.529 69.2321 807.406 69.1109 805.18 71.0508C803.944 72.142 800.482 74.4456 797.391 76.143C794.3 77.8404 792.075 79.2953 792.446 79.1741C792.817 79.1741 796.155 78.4466 799.864 77.5979ZM821.624 75.2943C820.387 74.4456 817.668 72.5057 815.813 71.0508C813.093 68.8684 812.228 68.6259 812.228 69.9596C812.228 71.0508 811.857 72.6269 811.486 73.5969C810.868 75.4155 813.464 76.2642 821.5 76.628C823.849 76.7492 823.849 76.628 821.624 75.2943ZM807.529 64.2611C808.024 63.5337 808.519 61.5938 808.519 60.1389C808.519 57.3503 808.519 57.3503 803.573 61.1088C800.853 63.1699 798.38 65.4736 797.886 66.0798C796.897 67.7772 806.417 65.9585 807.529 64.2611ZM810.497 46.9233C810.868 44.9834 811.486 42.4373 811.857 41.1036C812.351 39.4062 810.868 40.1337 806.54 44.0135C803.202 47.0446 800.235 49.5907 799.988 49.8332C799.74 50.0756 801.719 50.1969 804.562 50.1969C809.137 50.1969 809.755 49.8332 810.497 46.9233ZM828.795 31.4041C821.377 23.0383 819.522 22.6746 819.275 29.5855C819.027 33.2228 819.398 33.5865 826.446 36.2539C830.526 37.7088 834.358 39.0425 834.853 39.1637C835.471 39.1637 832.751 35.7689 828.795 31.4041ZM813.217 33.7078C813.34 33.7078 814.082 31.8891 814.7 29.7067L815.813 25.9482L809.013 31.6466C805.304 34.799 802.337 37.4663 802.337 37.5876C802.337 37.8301 812.228 34.314 813.217 33.7078Z" fill="#FF9C06"/>
<path d="M1020.86 149.419C1017.52 148.069 1016.93 146.14 1016.93 134.762C1016.93 120.684 1013.79 116.249 1009.86 124.734C1007.7 129.555 1008.1 132.062 1013.01 144.019C1014.19 146.719 1013.4 147.297 1007.51 147.297C1003.58 147.297 998.67 145.562 995.527 143.248C991.403 139.969 990.421 137.848 990.421 130.327C990.421 124.349 991.796 119.72 994.349 116.442C998.473 111.428 999.652 104.871 996.313 104.871C995.331 104.871 992.778 106.799 990.421 109.114C987.279 112.392 986.493 115.863 986.493 125.313C986.493 132.062 985.904 137.848 984.922 138.426C984.136 138.812 978.244 136.498 971.763 133.22C962.14 128.206 959.783 126.084 959.39 121.649C958.801 117.213 958.212 116.635 956.051 118.37C954.087 120.106 952.123 119.72 948.392 117.406C941.125 112.585 941.911 106.221 951.141 96.3856C959.783 87.3218 960.961 83.6576 955.462 83.6576C950.356 83.6576 946.035 89.0574 943.285 98.6998C941.125 106.799 940.929 106.992 937.393 103.907C932.876 99.8569 928.752 90.2145 930.127 86.7432C930.716 85.2004 936.215 80.7649 942.303 76.908C949.766 72.2796 953.105 69.0012 952.712 66.687C951.534 60.323 945.053 61.8658 936.215 70.9297C927.966 79.6078 927.573 79.6078 927.573 74.7866C927.573 60.1302 941.125 48.945 958.997 48.945C964.496 48.945 970.781 49.9093 972.941 50.8735C979.03 54.1519 977.655 48.1736 967.835 28.3103C960.372 13.2682 957.033 9.02552 947.999 2.08299C938.375 -5.43807 911.076 -20.2874 901.649 -23.1801C899.685 -23.7586 898.114 -26.0728 898.114 -28.1941C898.114 -38.8008 931.894 -25.6871 949.963 -7.9451C962.336 4.01147 970.388 17.7037 978.637 40.074L980.797 45.6666L986.297 34.2886C989.439 27.9246 994.545 20.4035 998.08 17.5108C1010.65 7.09704 1028.72 9.02551 1041.88 21.9463C1051.5 31.3959 1051.7 34.4814 1042.27 30.6245C1029.31 25.4176 1010.65 28.5031 1014.97 35.2528C1016.35 37.567 1017.92 37.567 1033.82 34.2886C1040.7 32.7458 1050.52 37.9527 1054.25 45.0881C1057 50.295 1058.37 64.3729 1056.21 64.3729C1055.63 64.3729 1050.52 61.2873 1044.82 57.6232C1032.84 49.7164 1024.59 47.9808 1017.92 51.452C1011.83 54.5376 1011.04 61.673 1016.93 60.9016C1019.1 60.7087 1024.99 59.9374 1029.9 59.3588C1037.95 58.2017 1039.52 58.7803 1046.2 64.3729C1056.21 73.051 1059.16 79.6078 1059.16 93.1072C1059.16 105.642 1056.8 109.306 1053.07 102.75C1049.54 95.9999 1035.4 81.7292 1029.5 78.6436C1021.45 74.5938 1015.95 75.1723 1015.95 79.9935C1015.95 84.0433 1025.77 89.4431 1033.24 89.4431C1042.66 89.4431 1056.02 107.571 1054.84 118.756C1054.05 127.048 1050.72 127.434 1046.79 119.527C1045.02 115.863 1041.48 111.428 1038.73 109.692C1032.84 105.835 1024.99 106.607 1024.2 111.235C1023.61 113.935 1024.99 114.513 1031.47 114.513C1040.11 114.513 1044.63 117.792 1048.55 127.434C1051.89 135.148 1052.09 139.776 1048.95 146.333C1046.98 150.769 1045.61 151.154 1035.79 150.962C1029.7 150.962 1023.02 150.19 1020.86 149.419ZM975.102 103.907C980.797 102.171 988.653 95.2285 987.279 93.1072C983.743 87.5146 969.406 96.5785 962.14 109.114L958.212 115.478L964.496 110.271C968.032 107.378 972.745 104.485 975.102 103.907Z" fill="#FFB9D2"/>
<path d="M1140.22 151.369C1140.22 138.75 1146.77 116.711 1156.43 97.6938L1165.17 79.9206L1146.77 98.938C1126.92 119.377 1121.83 122.576 1126.56 111.379C1131.66 99.6489 1140.22 88.0963 1151.33 77.9655C1157.34 72.6335 1161.71 68.1902 1160.98 68.1902C1160.25 68.1902 1150.96 70.8562 1140.4 74.2331C1129.84 77.4323 1118.73 80.8092 1115.63 81.5202L1110.35 82.5866L1113.81 78.6764C1119.46 72.6335 1140.76 63.3914 1154.97 60.9032C1170.81 58.2372 1169.17 57.1708 1139.85 51.1279C1127.47 48.6396 1116.73 45.9736 1115.82 45.085C1115.09 44.374 1118.91 43.1299 1124.56 42.419C1134.03 41.1748 1150.96 43.6631 1161.16 47.9287C1163.16 48.6396 1159.52 44.1963 1152.97 38.1534C1146.05 31.5773 1142.04 26.6008 1143.31 26.0676C1147.32 24.6457 1164.07 34.9542 1172.45 44.1963L1180.83 53.0829L1179.73 27.3117C1178.82 5.0951 1175.73 -16.2328 1168.26 -52.1348C1167.35 -56.7559 1167.72 -58 1169.9 -58C1171.9 -58 1173.36 -53.9121 1175.55 -42.3595C1180.46 -15.8774 1184.29 25.3566 1183.38 41.1748C1182.65 49.1728 1182.47 55.7489 1182.65 55.7489C1182.83 55.7489 1186.84 54.5048 1191.57 53.2607C1204.32 49.3505 1247.11 46.1514 1251.3 48.6396C1254.4 50.5947 1233.64 56.9931 1215.43 59.659C1208.14 60.7254 1202.13 62.325 1202.13 63.2137C1202.13 63.9246 1203.41 64.6356 1204.86 64.6356C1208.87 64.6356 1262.23 84.3639 1262.23 85.9635C1262.23 89.8736 1223.98 80.4538 1201.22 70.8562C1193.21 67.657 1193.76 68.1902 1205.23 76.8991C1212.69 82.4088 1237.64 110.846 1244.74 121.865L1248.2 127.197L1243.83 125.953C1236.19 123.821 1219.8 112.446 1207.05 100.36C1200.31 93.9615 1195.21 90.4068 1195.94 92.1841C1196.67 94.1392 1201.22 104.981 1206.14 116.356C1210.87 127.908 1214.88 138.395 1214.88 139.994C1214.88 147.814 1205.96 138.217 1197.03 120.621C1190.66 108.18 1186.47 96.272 1183.01 81.5202C1180.64 71.0339 1180.64 71.2117 1180.46 98.227C1180.28 128.264 1175.91 150.303 1169.17 156.346C1165.71 159.367 1165.71 159.012 1165.71 145.326C1165.71 137.684 1166.99 123.821 1168.44 114.578C1170.08 105.336 1170.99 97.5161 1170.63 97.1606C1170.26 96.8052 1168.08 101.604 1165.71 107.647C1158.79 126.309 1145.5 154.924 1142.77 157.234C1140.58 159.012 1140.22 157.945 1140.22 151.369Z" fill="#EA3556"/>
<path d="M1355.47 296.187C1353.54 293.804 1350.87 280.697 1349.42 264.969C1347 242.569 1347.24 235.181 1349.91 225.411C1356.2 202.057 1352.57 201.58 1341.44 224.219C1337.8 231.368 1332.48 238.041 1329.09 239.709C1323.53 242.569 1323.04 242.33 1322.31 236.611C1321.1 228.509 1327.64 219.215 1337.56 215.164C1351.6 209.444 1355.71 201.58 1361.52 168.933C1362.25 165.596 1362.01 170.601 1361.28 179.656C1360.56 188.95 1359.59 203.487 1359.59 212.542C1359.35 228.27 1359.59 228.747 1368.54 236.849C1376.77 244.475 1377.5 245.905 1377.5 258.535C1377.5 272.118 1377.5 272.118 1372.66 267.829C1368.06 263.778 1365.64 256.867 1357.89 228.509C1355.47 219.691 1354.75 218.5 1353.29 222.551C1350.15 230.177 1353.54 262.348 1358.62 271.403C1362.98 279.744 1364.67 300 1360.8 300C1359.59 300 1357.17 298.332 1355.47 296.187Z" fill="#F3B71A"/>
<path d="M1312.39 287.846C1315.3 275.455 1320.86 267.352 1329.58 262.824C1333.45 260.918 1338.77 255.914 1341.43 251.624L1346.52 243.998L1345.07 250.671C1339.5 274.978 1324.73 297.617 1314.57 297.617C1310.7 297.617 1310.46 296.425 1312.39 287.846Z" fill="#F3B71A"/>
<path d="M1391.29 243.284C1384.76 236.134 1381.85 225.411 1383.31 213.019C1384.52 204.44 1383.55 197.053 1379.92 186.805L1375.08 172.507L1376.53 192.763C1378.22 220.406 1372.66 234.466 1365.15 220.883C1360.56 212.542 1361.77 199.674 1368.78 184.899C1376.29 168.694 1376.29 167.026 1370.96 155.588L1366.61 146.77L1365.15 153.681C1364.43 157.971 1363.22 151.536 1362.01 136.762L1360.07 113.169L1354.02 127.229C1349.66 137.238 1348.45 143.434 1349.42 149.63C1353.29 172.031 1353.78 183.231 1350.87 191.333C1349.42 196.099 1347 199.912 1345.79 199.912C1342.16 199.912 1340.95 189.665 1341.92 166.311C1342.89 149.153 1344.58 140.336 1349.42 128.898C1352.81 120.795 1355.71 113.646 1355.71 112.693C1355.71 110.071 1339.98 124.37 1336.84 129.851C1335.14 132.949 1330.54 137.238 1326.67 139.145C1319.17 142.957 1307.31 143.911 1307.31 140.813C1307.31 136.285 1322.07 125.561 1332.72 122.463C1339.01 120.557 1346.76 116.029 1349.66 112.455C1356.92 104.59 1360.8 89.1007 1358.62 78.377L1356.68 70.2746L1351.12 85.5261C1345.79 99.8244 1332.96 116.506 1329.82 113.408C1325.95 109.595 1332.24 94.82 1341.43 86.9559C1358.13 71.9428 1358.86 65.2702 1348.21 23.8053C1344.1 7.83889 1341.43 -6.45937 1341.92 -8.1275C1343.86 -12.8936 1348.7 2.11958 1354.5 30.7161L1360.07 57.8828L1375.8 72.4194C1391.05 86.241 1396.13 93.6285 1392.26 96.0115C1388.15 98.6328 1374.83 87.4325 1369.03 75.9939C1365.64 69.5597 1362.25 64.0787 1361.52 64.0787C1361.04 64.0787 1361.04 69.798 1362.01 76.7088C1364.19 92.1986 1372.9 105.067 1386.45 111.501C1392.5 114.361 1398.31 119.365 1400.49 123.893C1404.36 131.281 1404.36 131.281 1398.8 129.612C1392.26 127.706 1385.73 122.463 1378.71 114.123C1376.05 111.025 1371.45 105.544 1368.3 102.207L1362.98 96.2498L1365.4 102.922C1369.51 114.599 1374.59 122.225 1382.1 129.374C1388.87 135.808 1396.38 151.06 1393.96 153.443C1390.81 156.541 1380.64 144.626 1373.62 129.851L1365.64 112.931V126.753C1365.4 135.808 1366.85 143.434 1369.99 149.63C1375.56 160.115 1378.47 162.737 1392.5 169.648C1398.07 172.507 1404.85 178.465 1407.27 182.754L1411.87 190.38H1406.3C1402.67 190.38 1396.62 186.091 1389.36 178.227L1377.98 166.073L1379.92 173.937C1383.06 187.044 1384.27 188.712 1400.01 199.912C1409.45 206.585 1415.25 212.781 1415.74 216.117C1416.46 220.883 1415.98 221.121 1410.41 218.738C1407.02 217.07 1404.12 215.164 1404.12 214.449C1404.12 213.734 1399.76 208.253 1394.44 202.295C1385.97 193.001 1383.06 194.908 1390.81 204.678C1396.38 211.827 1399.28 221.836 1399.28 233.275C1399.28 246.382 1396.86 249.48 1391.29 243.284Z" fill="#F3B71A"/>
<path d="M1290.37 216.593C1290.37 204.44 1296.42 194.431 1310.46 183.231C1323.77 172.507 1332.72 162.022 1331.03 158.924C1330.3 157.017 1339.5 149.63 1340.95 151.06C1341.43 151.536 1338.29 156.779 1333.93 162.737C1326.43 172.984 1326.19 173.937 1327.88 189.903C1329.09 203.01 1328.61 208.014 1325.46 213.972C1316.75 230.892 1310.94 208.253 1319.41 190.142C1322.56 183.707 1324.49 177.75 1323.77 177.035C1320.86 174.175 1312.63 186.329 1308.52 199.912C1301.98 220.883 1290.37 231.607 1290.37 216.593Z" fill="#F3B71A"/>
<path d="M1283.59 173.222C1286.01 166.311 1298.11 160.83 1310.46 160.592C1317.47 160.354 1324.73 159.4 1326.67 158.447C1328.61 157.494 1327.64 158.924 1324.25 161.545C1320.86 164.166 1313.84 168.694 1308.28 171.316C1297.39 176.558 1282.14 177.75 1283.59 173.222Z" fill="#F3B71A"/>
<defs>
<filter id="filter0_d" x="-11" y="-24" width="183.316" height="266" filterUnits="userSpaceOnUse" color-interpolation-filters="sRGB">
<feFlood flood-opacity="0" result="BackgroundImageFix"/>
<feColorMatrix in="SourceAlpha" type="matrix" values="0 0 0 0 0 0 0 0 0 0 0 0 0 0 0 0 0 0 127 0"/>
<feOffset dy="4"/>
<feGaussianBlur stdDeviation="2"/>
<feColorMatrix type="matrix" values="0 0 0 0 0 0 0 0 0 0 0 0 0 0 0 0 0 0 0.25 0"/>
<feBlend mode="normal" in2="BackgroundImageFix" result="effect1_dropShadow"/>
<feBlend mode="normal" in="SourceGraphic" in2="effect1_dropShadow" result="shape"/>
</filter>
</defs>
</svg>
