<svg width="1444" height="287" viewBox="0 0 1444 287" fill="none" xmlns="http://www.w3.org/2000/svg" className="svg">

<path d="M1277.14 65.0677C1278.77 66.937 1280.16 71.4933 1281.84 80.0562C1284.89 95.6057 1287.7 99.5166 1301.46 107.788C1306.84 111.02 1311.12 113.816 1310.92 114.073C1310.23 114.971 1292.92 113.167 1289.3 111.903C1285.3 110.456 1280.7 106.083 1276.26 99.3792C1274.56 96.9418 1272.92 94.9589 1272.58 95.0029C1271.44 95.1497 1275.91 114.559 1277.97 117.99C1282.32 125.746 1293.57 128.911 1304.31 125.442C1307.42 124.462 1312.99 122.933 1316.92 122.078C1323.64 120.515 1324.22 120.556 1327.8 123.213C1329.96 124.781 1332.95 127.398 1334.43 129.055L1337.23 131.928L1334.68 130.987C1331.04 129.609 1327.1 130.35 1320.97 133.8C1317.95 135.462 1313.89 137.027 1311.84 137.292C1307.87 137.806 1298.78 135.285 1295.23 132.855C1293.21 131.499 1292.98 131.529 1293.18 133.006C1293.31 134.029 1294.42 136.426 1295.63 138.581C1300.99 147.939 1311.58 153.153 1319.8 150.703C1324.13 149.335 1325.34 148.023 1331.8 138.176C1334.6 133.886 1334.81 133.743 1338.09 135.051C1340.41 136.022 1342.71 138.614 1345.51 143.335C1347.62 147.22 1349.33 150.581 1349.02 150.852C1348.82 151.109 1347.48 150.589 1345.96 149.515C1341.65 146.491 1335.18 148.252 1325.67 155.028C1321.11 158.159 1316.06 161.008 1314.36 161.229C1310.61 161.713 1300.73 158.485 1295.08 154.941L1290.94 152.358L1294.1 158.072C1300.44 169.614 1306.78 175.841 1314.74 178.509C1323.44 181.543 1329.52 179.485 1338 170.994C1350.47 158.521 1353.47 159.404 1356.35 176.361L1358.11 187.34L1354.75 184.54C1350.47 180.933 1346.18 181.605 1338.22 187.024C1334.51 189.583 1330.15 191.534 1327.65 191.857C1321.87 192.606 1312.1 189.364 1305.11 184.376L1299.52 180.363L1300.71 185.175C1303.45 195.681 1309.82 202.945 1319.13 206.247C1329.74 209.841 1339.37 206.632 1346.33 197.067C1350.05 191.964 1354.15 190.625 1356.29 193.814C1357.13 194.976 1357.87 198.924 1357.96 203.187L1358.33 210.533L1354.1 207.267C1351.8 205.486 1349.08 204.105 1348.17 204.222C1347.15 204.354 1342.96 206.745 1338.7 209.491C1332.2 213.682 1329.56 214.717 1323.55 215.495C1314.7 216.64 1307.51 214.566 1301.99 209.387C1298.32 205.935 1298.2 205.95 1297.97 208.637C1297.11 216.258 1304.67 228.335 1312.79 232.253C1325.23 238.383 1335.5 235.669 1347.3 223.398C1354.83 215.607 1357.49 216.534 1360.72 228.132C1362.02 232.816 1363.41 237.373 1364.01 238.45C1364.77 239.854 1364.07 239.828 1360.38 237.996C1354.07 234.768 1344.88 235.957 1332.56 241.48C1320.33 246.874 1312.04 247.946 1305.87 244.816L1301.19 242.533L1302.49 247.218C1305.21 257.61 1318.01 265.544 1330.87 265.036C1339.25 264.76 1345.97 262.273 1355.75 255.809C1368.09 247.742 1368.21 247.727 1374.57 254.992C1377.66 258.404 1380.12 261.322 1380.15 261.549C1380.17 261.776 1378.39 262.238 1376.15 262.759C1370.06 263.893 1365.22 267.523 1360.14 274.65C1352.03 285.982 1349.68 288.365 1345.8 289.561L1342.04 290.856L1346.17 292.402C1351.85 294.439 1361.82 294.767 1366.22 293.157C1373.06 290.656 1376.39 286.99 1378.87 279.39C1382.82 267.095 1384.91 266.248 1395.36 272.173C1405.45 277.916 1417.89 282.199 1429.29 283.843C1433.99 284.506 1438.44 284.971 1439.12 284.883C1439.8 284.795 1439.9 282.932 1439.34 280.348L1438.33 276.089L1432.21 276.071C1424.96 276.201 1410.85 273.289 1403.53 270.193C1397.8 267.815 1396.64 265.076 1399.13 260.248C1401.07 256.531 1404.59 254.228 1415.21 249.85C1424.64 245.973 1427.44 243.531 1429.64 237.354C1431.17 233.113 1429.45 222.475 1426.4 216.746L1424.62 213.627L1423.16 217.513C1422.38 219.577 1420.12 222.642 1418.26 224.269L1414.82 227.14L1415.3 223.727C1415.91 219.49 1414.36 207.444 1412.84 204.637C1411.78 202.694 1411.46 202.852 1409.95 206.397C1407.62 211.551 1403.45 214.169 1392.03 217.727C1378.95 221.846 1374.64 225.175 1371.78 233.401L1369.51 239.934L1367.69 235.664C1360.88 219.561 1360.56 213.48 1366.42 207.06C1370.07 203.122 1372.66 202.671 1384.3 204.286C1394.99 205.791 1399.81 204.705 1404.57 199.583C1408.81 194.875 1410.98 187.547 1410.06 180.388C1408.93 171.638 1407.84 170.392 1405.45 175.092C1402.59 180.661 1397.24 183.895 1385.95 186.741C1369.39 190.732 1365.1 193.251 1361.78 200.613C1360.17 204.172 1360.07 204.301 1359.73 201.687C1359.54 200.21 1359.36 194.341 1359.43 188.67C1359.51 178.494 1359.58 178.139 1362.99 175.964C1366.29 173.804 1366.87 173.845 1374.27 175.775C1378.58 176.951 1383.75 177.669 1385.9 177.39C1394.64 176.26 1400.49 166.145 1400.22 152.431L1400.06 144.942L1395.46 150.39C1390.36 156.48 1385.99 158.431 1376.56 158.612C1368.74 158.815 1363.27 161.14 1360.91 165.257C1358.61 168.905 1358.2 168.381 1356.28 159.733C1353.99 150.093 1358.37 143.75 1371.15 138.169C1382.07 133.405 1385.89 127.25 1384.53 116.682C1383.86 111.455 1378.39 101.302 1373.76 96.7018C1372.16 95.0598 1371.98 95.43 1372.35 100.118C1372.89 106.981 1370.66 112.007 1364.48 117.774C1356.22 125.312 1351.97 131.753 1351.22 137.512C1350.78 140.343 1350.16 142.733 1349.82 142.777C1348.23 142.982 1343.78 134.431 1342.55 128.467C1340.4 118.925 1341.02 114.801 1346.26 106.267C1351.79 97.2333 1352.97 92.112 1351.33 84.7002C1350.1 79.66 1343.87 70.7606 1341.72 71.0396C1341.26 71.0983 1340.91 73.6864 1340.96 76.7986C1341.04 82.7957 1338.79 90.3658 1335.03 96.9758C1332.01 102.218 1331.96 108.116 1334.84 113.406C1336.17 115.66 1337.92 120.286 1338.81 123.636L1340.38 129.556L1331.8 122.926C1321.02 114.5 1320.47 112.03 1326.03 96.9846C1331.33 82.6653 1330.04 75.3231 1320.76 68.6676L1316.8 65.7137L1317.52 71.2818C1317.9 74.2364 1317.36 81.6999 1316.2 87.8585C1313.95 99.9338 1314.15 104.182 1317.24 110.252C1319.1 113.94 1319.13 114.167 1317.31 113.478C1312.33 111.58 1303.83 103.785 1299.94 97.8174C1297.74 94.174 1294.5 86.9677 1293.02 81.7296C1291.42 76.5062 1289.49 71.3268 1288.77 70.2638C1286.66 67.3023 1281.75 64.1249 1278.05 63.2164L1274.83 62.3628L1277.14 65.0677ZM1392.7 239.937C1394.72 240.37 1394.75 240.597 1392.74 242.936C1388.12 248.27 1387.22 256.474 1390.49 261.25C1394.42 266.635 1387.36 262.002 1379.89 254.188C1376.7 250.904 1376.35 250.025 1377.31 247.59C1379.27 242.253 1386.98 238.483 1392.7 239.937Z" fill="#A9BFFB"/>

<path d="M1234.74 164.652C1232.17 165.95 1225.38 164.271 1216.7 160.113C1203.95 154.094 1194.43 152.125 1188.51 154.417C1180.31 157.574 1178.17 162.93 1181.03 173.817C1183.1 182.031 1183.09 184.816 1180.9 187.215C1178.87 189.424 1176.9 189.438 1174.09 187.078C1168.47 182.36 1167.71 169.554 1172.43 159.226C1173.46 156.847 1173.95 154.918 1173.45 154.833C1171.33 154.502 1164.79 157.723 1161.47 160.849C1156.09 165.712 1153.86 171.43 1154.33 178.863C1154.73 185.116 1156.15 187.983 1163.08 196.82C1168.46 203.569 1167.37 210.692 1160.82 211.782C1158.5 212.175 1157.6 211.761 1154.01 208.743C1145.25 201.273 1140.82 183.263 1144.64 170.506C1145.57 167.483 1146.07 164.783 1145.81 164.563C1145.02 163.787 1137.94 167.223 1134.72 169.986C1130.84 173.208 1127.5 180.007 1127.13 185.72C1126.75 191.433 1129.21 198.081 1133.69 203.291C1138.16 208.501 1139.09 211.401 1136.89 213.799C1134.7 216.197 1132.28 216.063 1130.06 213.309C1127.71 210.444 1123.75 198.743 1122.9 192.105C1122.53 189.227 1121.94 186.837 1121.69 186.854C1120.46 186.936 1113.55 197.767 1111.4 202.887C1103.43 222.32 1107.74 245.372 1121.07 253.663C1125.9 256.716 1135.13 258.883 1140.54 258.284L1145.2 257.734L1143.97 259.831C1143.37 260.997 1141.17 267.305 1139.18 273.896C1137.13 280.432 1134.09 288.041 1132.47 290.815L1129.5 295.694L1132.05 295.82L1134.58 295.828L1136.76 287.27C1138.72 279.318 1144.68 262.094 1145.95 260.706C1146.29 260.327 1147.76 262.895 1149.27 266.289C1160.1 290.565 1179.58 295.422 1202.69 279.656C1206.12 277.294 1209.02 275.145 1208.94 274.854C1208.92 274.618 1207.23 274.316 1205.18 274.157C1187.48 272.914 1169.23 259.265 1175.76 252.134C1178.65 248.978 1181.8 249.834 1190.11 256.031C1199.58 262.98 1203.47 264.793 1209.04 264.894C1215.41 264.882 1219.96 262.445 1224.82 256.255C1228.71 251.373 1232.95 243.21 1232.04 242.442C1231.71 242.167 1229.33 242.623 1226.59 243.339C1220.15 245.192 1205.78 245.74 1198.16 244.473C1190.6 243.261 1181.17 239.923 1178.29 237.509C1174.5 234.327 1175.96 229.075 1180.78 228.989C1181.95 228.97 1188.33 230.972 1194.8 233.501C1208.94 239.012 1213.22 240.147 1219.94 239.875C1232.23 239.585 1241.03 231.235 1239.54 221.382C1239.3 219.621 1238.7 217.884 1238.3 217.555C1237.85 217.17 1235.78 217.783 1233.62 218.757C1225.1 222.882 1209.85 222.244 1207.76 217.703C1205.91 213.799 1209.46 212.317 1217.04 213.765C1225.42 215.336 1233.59 211.59 1237.52 204.277C1239.84 199.975 1239.98 196.411 1237.92 195.127C1237.02 194.595 1232.4 194.845 1227.02 195.798C1221.89 196.734 1216.41 197.16 1214.89 196.669C1212.32 196.071 1212.12 195.788 1211.91 193.492C1211.82 191.069 1211.87 190.888 1214.42 190.243C1215.94 189.845 1218.42 189.916 1219.94 190.407C1225.87 192.261 1233.27 190.106 1235.96 185.661C1237.63 182.824 1237.65 181.164 1235.96 175.056C1235.16 172.148 1234.86 168.435 1235.25 166.869C1235.86 164.696 1235.76 164.169 1234.74 164.652ZM1214.2 168.279C1213.49 170.814 1208.72 175.517 1205.58 176.676C1203.1 177.612 1200.48 175.299 1200.86 172.489C1201.22 169.444 1206.25 163.953 1209.3 163.275C1212.46 162.47 1214.99 165.145 1214.2 168.279ZM1202.54 182.271C1201.64 183.752 1198.94 183.045 1198.82 181.275C1198.71 179.505 1201.3 178.443 1202.38 179.793C1202.91 180.468 1202.98 181.53 1202.54 182.271ZM1184.38 195.276C1184.6 197.808 1183.32 198.961 1180.93 198.409C1177.11 197.658 1178.5 192.233 1182.32 192.985C1183.25 193.1 1184.13 193.278 1184.19 193.333C1184.26 193.388 1184.38 194.269 1184.38 195.276ZM1203.28 212.376C1202.9 214.178 1199.37 215.007 1197.73 213.636C1195.97 212.154 1196.21 210.124 1198.31 209.095C1199.57 208.477 1203.51 211.116 1203.28 212.376ZM1217.37 253.91C1217.64 255.136 1217.15 256.294 1215.86 257.329C1214.1 258.868 1213.67 258.838 1211.64 257.137C1209.62 255.436 1209.53 255.027 1210.89 253.159C1212.2 251.353 1215.18 250.62 1216.55 251.772C1216.75 251.937 1217.12 252.919 1217.37 253.91ZM1145.52 222.049C1145.82 223.747 1145.51 224.716 1144.25 225.451C1141.09 227.262 1136.98 223.806 1137.97 220.066C1138.3 218.444 1138.84 218.112 1140.95 218.208C1144.11 218.292 1145.02 219.061 1145.52 222.049ZM1151.67 232.123C1151.02 233.588 1148.17 234.549 1147.13 233.671C1145.82 232.574 1146.14 229.827 1147.64 229.075C1149.14 228.323 1152.19 230.666 1151.67 232.123ZM1123.88 217.277C1125.65 221.779 1126.03 223.768 1125.16 224.715C1123.31 226.735 1120.3 224.093 1117.49 217.824C1115.04 212.419 1114.97 210.35 1117.31 209.186C1119.28 208.165 1121.29 210.637 1123.88 217.277ZM1162.65 259.884C1161.3 261.87 1158.77 261.091 1158.61 258.614C1158.45 257.025 1158.8 256.646 1160.27 256.429C1162.72 256.029 1164.01 257.897 1162.65 259.884ZM1173.74 270.753C1174.55 272.891 1175.1 275.579 1174.92 276.658C1174.6 278.515 1174.31 278.831 1172.47 278.955C1169.69 279.081 1165.78 274.9 1163.84 269.698C1160.34 260.394 1169.86 261.356 1173.74 270.753ZM1138.48 248.291C1137.79 250.055 1132.86 250.385 1129.17 248.855C1122.83 246.317 1111.77 234.795 1112.55 231.543C1112.91 230.393 1113.61 229.754 1114.89 229.491C1116.48 229.147 1117.25 229.57 1119.58 232.198C1126.04 239.408 1129.05 242.05 1132.73 243.581C1137.81 245.61 1139.05 246.653 1138.48 248.291Z" fill="#FFB9D2"/>
<path d="M967.522 79.5052C965.853 83.0804 962.838 88.6217 960.592 91.8603C958.348 95.2136 956.019 100.746 955.265 104.195C954.511 107.644 953.749 110.52 953.52 110.523C952.719 110.533 947.48 104.408 944.908 100.543C942.452 96.9052 942.289 93.3531 944.28 88.2833C945.168 86.2084 945.052 86.0952 943.24 87.6086C940.524 89.936 938.076 95.1262 938.125 98.6797C938.183 102.921 940.759 107.016 946.796 112.901C951.554 117.427 952.141 118.451 952.204 123.036C952.275 128.195 952.275 128.195 950.407 125.581C949.356 124.104 945.197 121.52 941.28 119.85C933.675 116.507 930.309 113.224 930.247 108.754C930.193 104.856 928.272 106.715 927.536 111.425C926.368 118.09 929.645 123.207 937.248 126.436C940.818 127.881 945.427 129.886 947.501 130.777C950.726 132.112 954.464 137.454 953.224 138.845C952.998 139.077 951.044 138.529 948.855 137.639C946.669 136.864 942.416 135.772 939.204 135.354C931.747 134.416 927.478 132.177 924.783 127.74L922.442 124.101L922.501 128.342C922.643 138.659 927.157 142.041 941.94 142.771C947.785 143.041 952.948 143.779 953.53 144.459C954.111 145.025 955.052 146.847 955.421 148.677C956.265 151.762 956.151 151.763 953.043 150.656C950.971 149.88 946.044 149.713 939.982 150.248C930.718 151.168 930.03 151.062 925.868 148.249C921.476 145.323 921.476 145.323 922.197 147.836C923.275 151.262 926.065 154.208 928.709 154.977C929.975 155.42 930.906 156.44 930.92 157.471C930.932 158.388 932.685 160.888 934.89 163.039C938.721 166.774 939.066 166.884 948.456 166.765C960.25 166.616 962.548 167.16 964.2 170.693C966.324 175.252 965.871 175.602 960.352 174.067C956.903 173.079 951.975 172.797 945.796 173.219C935.271 174.04 931.59 172.826 929.12 168.156L927.592 165.31L927.635 168.405C927.694 172.646 932.808 178.084 937.866 179.511C940.164 180.055 946.356 180.55 951.508 180.485C963.646 180.331 969.86 182.545 972.109 187.791C973.053 189.842 973.767 191.782 973.77 192.012C973.774 192.241 971.355 191.24 968.357 189.787C962.591 186.879 958.925 186.811 940.98 189.331C933.206 190.347 927.225 188.473 924.183 183.811L921.844 180.287L922.586 184.29C923.076 186.577 925.068 189.876 927.392 192.255C929.599 194.52 931.466 197.018 931.477 197.821C931.488 198.623 932.084 200.335 932.905 201.701C933.725 203.066 934.348 206.727 934.507 209.935C934.726 217.499 938.019 223.763 943.68 227.36C947.841 230.059 949.677 230.38 962.168 230.91C977.063 231.409 980.628 232.511 985.975 238.176C989.576 241.913 990.933 248.89 989.79 257.388L989.068 263.13L987.513 258.334C985.594 252.053 976.878 242.877 970.774 240.432C968.126 239.433 959.974 237.931 952.746 236.991C935.196 234.92 930.01 232.578 924.161 223.709C922.991 221.89 922.768 222.351 922.83 226.822C922.764 238.632 931.432 244.369 952.534 246.51C959.875 247.334 967.564 248.498 969.519 249.046C975.501 251.034 982.333 256.451 985.733 262.14C988.78 267.146 988.902 267.718 987.598 272.779C985.644 280.6 980.526 291.442 976.468 296.194C974.553 298.511 972.982 300.824 972.991 301.512C973.004 302.429 975.545 304.002 977.034 303.983C978.408 303.965 986.763 287.006 989.404 279.177C991.052 274.111 993.158 269.04 994.171 267.766C997.776 263.478 1006.18 258.442 1020.87 251.951C1029.06 248.293 1038.27 243.59 1041.22 241.375C1051.54 234.136 1056.33 224.101 1055.03 212.767C1053.99 204.067 1052.36 201.909 1052.34 209.361C1052.34 217.157 1048.1 225.695 1041.32 231.857C1038.37 234.417 1028.95 240.383 1020.2 244.965C1011.33 249.778 1002.02 255.629 998.853 258.535L993.312 263.65L993.818 258.828C995.147 247.231 1001.46 240.273 1018.53 231.802C1026.37 227.919 1032.28 224.061 1034.19 221.858C1042.53 211.664 1045.48 201.537 1042.17 194.242L1040.4 190.251L1040.35 194.953C1040.34 202.29 1037.23 209.896 1031.82 216.156C1027.88 220.563 1023.91 223.25 1013.67 228.424C1005.25 232.658 999.804 236.166 998.231 238.364C996.884 240.33 995.416 241.84 994.844 241.847C994.386 241.853 993.885 238.763 993.831 234.866C993.701 225.466 996.524 222.564 1009.75 218.384C1025.71 213.252 1034.05 203.287 1034.99 188.485C1035.36 181.831 1035.36 181.602 1034.39 186.085C1032.25 196.89 1025.81 203.621 1010.34 211.039C1003.51 214.336 998.632 217.608 996.265 220.389C992.432 224.795 992.203 224.797 990.876 219.884C989.785 215.541 994.41 210.438 1001.36 207.943C1017.77 202.232 1027.89 188.575 1027.22 172.762C1027.06 169.783 1026.7 168.756 1026.5 170.364C1024.39 183.804 1017.98 192.484 1004.68 199.302C996.605 203.532 990.043 209.347 990.086 212.442C990.097 213.245 989.637 213.136 988.936 212.113C985.662 207.224 989.661 198.231 996.375 195.165C1009.58 189.266 1014.69 186.335 1016.71 183.443C1021.43 176.848 1022.8 167.888 1020.08 161.617C1018.77 158.423 1018.77 158.423 1017.93 163.937C1016.37 174.849 1010.39 182.032 996.422 190.235C992.446 192.578 988.257 196.07 986.909 198.036L984.555 201.735L983.142 198.887C981.487 195.124 981.475 194.322 983.586 189.594C985.035 186.71 987.75 184.268 994.339 180.401C1008.99 171.617 1015.95 160.981 1013.74 150.347C1012.88 146.23 1010.93 146.14 1010.99 150.152C1011.08 157.03 1004.45 165.942 990.856 177.006C986.327 180.732 981.694 185.262 980.689 187.109L978.674 190.459L976.549 185.9C974.778 182.024 974.648 180.88 975.866 177.883C976.641 175.924 978.897 173.488 980.83 172.432C982.762 171.376 987.874 168.33 992.071 165.411C1000.24 160.034 1004.06 154.253 1004.08 147.374C1004.02 143.132 1002.19 143.499 1001.34 147.981C1000.27 153.957 995.869 158.484 985.867 163.999C979.276 167.751 975.763 170.432 974.312 173.202L972.075 177.014L970.55 174.396C969.728 172.916 969.01 170.747 968.882 169.717C968.845 167.08 974.628 162.88 983.965 158.978C990.796 156.026 994.985 152.533 994.947 149.782C994.941 149.324 993.575 149.914 991.874 151.197C990.06 152.481 985.619 154.371 981.857 155.566C974.328 157.724 971.833 159.476 968.699 164.789L966.571 168.256L966.519 164.473C966.407 156.334 972.046 150.072 982.538 146.844C991.204 144.097 996.643 139.901 998.857 134.37C1001.18 128.608 1000.71 127.696 997.215 131.524C993.717 135.352 987.807 138.637 978.917 141.73C971.849 144.113 964.605 150.281 963.523 154.88L962.765 157.985L961.109 154.223C959.689 150.916 959.677 149.999 961.124 147C963.131 143.076 966.769 141.081 975.444 139.023C979.326 138.171 982.739 136.523 983.98 135.131C986.122 132.696 986.122 132.696 983.843 133.528C982.59 134.002 978.709 134.968 975.282 135.585C967.516 137.174 964.452 139.162 961.32 144.59C959.531 147.708 958.737 148.291 958.487 146.804C958.244 145.775 959.122 143.013 960.466 140.817C962.481 137.467 965.546 135.479 975.669 130.421C982.606 126.894 989.197 123.142 990.21 121.868C992.917 118.852 995.568 111.825 995.516 108.043C995.477 105.177 995.249 105.294 992.224 110.148C988.865 115.694 985.579 118.257 973.184 124.605C964.314 129.189 961.481 131.403 958.569 136.141L956.554 139.491L955.592 136.178C954.269 131.609 957.084 128.134 965.832 122.979C973.216 118.643 978.394 112.157 978.325 107.114L978.29 104.592L974.206 107.395C971.938 109.029 969.322 110.323 968.291 110.336C966.001 110.365 957.823 115.284 957.842 116.659C957.85 117.233 957.51 117.466 957.161 117.127C956.813 116.787 959.15 111.828 962.28 106.285C968.871 94.2778 971.392 86.1059 970.83 78.5461L970.41 73.0483L967.522 79.5052ZM958.173 157.241C961.087 160.873 959.835 161.462 950.784 161.233C942.19 160.883 933.226 158.589 934.694 157.08C935.821 155.804 948.285 154.385 952.644 154.903C954.823 155.105 957.358 156.22 958.173 157.241ZM968.684 196.891C976.407 200.462 978.146 202.045 980.277 207.063C982.285 211.509 981.966 213.233 979.536 211.429C976.99 209.512 970.668 207.873 959.765 206.176C947.831 204.493 940.125 202.068 936.879 199.243C934.793 197.435 935.02 197.317 940.842 195.983C951.916 193.435 962.228 193.763 968.684 196.891ZM953.987 210.721C966.73 212.967 974.55 215.276 980.093 218.645C984.829 221.566 986.116 223.499 987.456 229.329L988.313 233.331L984.483 229.71C979.38 225.074 974.314 223.075 965.025 222.16C949.544 220.751 941.935 217.064 937.465 208.522C936.171 206.016 936.171 206.016 939.856 207.46C941.929 208.351 948.362 209.76 953.987 210.721Z" fill="#EA3556"/>
<path d="M876.403 301.714C872.361 298.488 864.473 291.021 858.853 285.122C853.233 279.222 848.501 274.336 848.402 274.336C848.205 274.336 845.543 275.627 842.487 277.102C834.5 281.066 833.416 280.789 836.669 275.719C838.05 273.414 838.937 271.571 838.543 271.571C838.148 271.571 835.486 273.507 832.528 275.811C827.796 279.683 826.81 280.052 823.458 279.591C821.486 279.406 818.331 278.577 816.458 277.839L813.105 276.641L817.246 273.875C819.514 272.493 821.782 270.557 822.373 269.635C823.162 268.16 822.472 268.252 814.683 270.188C808.669 271.663 805.514 272.032 804.33 271.479C802.358 270.465 802.063 269.174 803.542 268.344C804.035 268.068 805.021 266.962 805.612 265.855C806.598 264.196 806.401 264.104 803.837 264.565C798.71 265.579 795.95 264.104 790.724 257.375C788.062 253.872 785.795 250.277 785.795 249.355C785.795 248.433 789.936 243.639 794.964 238.846C799.992 234.052 803.936 230.089 803.64 230.089C802.753 230.089 793.978 235.066 788.062 238.938C784.71 241.151 781.161 242.994 780.175 242.994C777.611 242.902 789.048 233.131 798.71 227.231C805.711 222.898 808.669 220.225 805.316 221.331C798.71 223.451 773.667 229.075 772.977 228.706C769.921 226.954 775.442 222.53 786.781 217.736C793.682 214.879 792.499 214.786 780.865 217.644C765.287 221.423 764.202 220.594 776.231 214.233C780.668 211.836 787.273 208.61 791.02 207.135C797.33 204.462 798.71 203.171 796.739 202.065C796.246 201.696 792.4 202.71 788.161 204.278C783.921 205.752 780.372 206.859 780.175 206.674C779.977 206.582 782.048 205.292 784.809 203.909C787.471 202.526 789.738 201.235 789.738 201.051C789.738 200.221 781.752 202.895 774.949 205.937C770.907 207.78 767.16 209.44 766.569 209.624C766.076 209.808 768.047 207.596 771.005 204.738L776.428 199.392L767.752 203.724C762.921 206.213 758.878 207.965 758.681 207.78C758.385 207.596 758.582 206.213 758.977 204.831C759.568 202.803 761.639 201.143 767.555 197.733C771.893 195.336 778.006 192.386 781.062 191.188C786.288 189.252 788.062 187.592 785.992 186.394C785.499 186.118 779.484 187.961 772.583 190.45C765.681 193.031 759.667 195.059 759.174 195.059C758.78 195.059 758.089 194.322 757.695 193.492C756.709 190.819 764.991 185.841 779.879 180.126L784.316 178.374L777.907 178.927C774.358 179.204 767.85 180.31 763.315 181.324C758.78 182.338 754.934 183.076 754.737 182.891C754.54 182.707 753.751 179.941 752.962 176.807L751.484 170.907L755.625 169.34C757.794 168.419 762.329 166.759 765.484 165.469L771.301 163.256L761.047 162.98C755.427 162.888 750.498 162.427 750.005 161.966C749.61 161.597 751.385 160.491 753.948 159.569C760.85 157.172 761.244 156.343 755.723 156.343C752.962 156.343 750.3 155.974 749.709 155.605C749.117 155.236 748.329 152.287 747.934 149.06L747.244 143.16L753.653 143.621C757.202 143.898 760.16 143.99 760.16 143.806C760.16 143.621 757.301 142.239 753.751 140.764C750.202 139.289 747.343 137.537 747.343 137.076C747.343 135.786 747.343 135.786 758.188 138.367C763.315 139.565 767.555 140.487 767.752 140.303C767.85 140.211 763.118 137.906 757.202 135.141C746.061 129.978 745.272 129.241 747.145 124.816C747.737 123.341 748.526 123.618 753.751 126.936C763.808 133.205 764.498 133.481 765.977 131.269C767.16 129.425 766.667 128.78 758.582 121.682C750.202 114.307 749.906 113.939 751.582 112.372C753.357 110.804 753.554 110.804 756.413 113.939L759.371 117.165L758.681 113.939C758.287 112.187 757.794 109.883 757.498 108.776C756.906 106.472 760.357 104.813 767.16 104.075L771.794 103.522L771.4 112.187L771.005 120.852L773.273 113.017C775.541 105.55 775.738 105.181 778.301 105.366C779.78 105.458 782.541 106.472 784.414 107.578C787.766 109.514 787.964 109.79 787.372 113.201C786.978 115.229 785.203 120.391 783.33 124.816C779.583 133.481 779.583 133.481 786.189 125.554C788.654 122.512 790.724 120.299 790.724 120.484C790.724 120.76 789.64 123.618 788.259 126.844C786.879 130.071 785.795 133.113 785.795 133.573C785.795 134.127 788.259 130.9 791.316 126.475L796.936 118.456L799.105 121.958L801.373 125.369L798.415 133.297C795.062 142.054 791.119 149.798 786.09 157.08C783.428 161.044 783.231 161.781 784.809 160.952C788.161 159.292 797.33 148.231 801.373 140.856L805.218 133.942L808.866 143.99C810.838 149.521 812.415 154.683 812.415 155.421C812.415 156.896 805.218 165.837 796.64 174.963C792.302 179.573 791.809 180.402 794.175 179.02C799.203 176.07 810.443 167.312 812.81 164.362C815.077 161.689 815.176 161.689 816.26 163.441C817.049 165.008 816.951 165.837 815.373 167.681C812.711 170.815 812.908 171.829 815.669 169.433L818.035 167.404L821.19 172.106L824.345 176.899L821.782 180.31C818.824 184.366 807.288 194.875 803.246 197.364C801.767 198.286 800.682 199.207 800.978 199.392C801.767 200.221 811.133 195.151 815.767 191.28C820.303 187.5 820.5 187.408 819.021 190.081C818.134 191.649 815.57 195.151 813.302 197.917C808.57 203.448 809.063 203.171 821.979 192.939L831.05 185.749L837.064 193.4L843.078 201.051L838.839 204.646C832.331 210.085 823.556 215.432 816.458 218.197C812.908 219.58 809.852 221.239 809.654 221.792C809.359 222.53 809.95 222.714 811.528 222.253C816.162 220.87 829.768 214.602 837.36 210.454C845.839 205.752 846.923 205.384 846.923 207.596C846.923 209.532 838.247 217.275 829.768 222.806C824.345 226.494 823.458 227.323 825.725 226.862C830.458 225.848 840.909 221.147 846.036 217.644L850.769 214.51L852.445 218.75C853.726 221.7 853.924 223.359 853.135 224.465C851.261 227.323 842.487 232.946 833.613 237.002C828.782 239.215 825.627 241.058 826.711 241.151C831.444 241.151 841.895 239.03 848.599 236.634L855.797 233.96V240.321V246.589L851.163 249.539C848.501 251.198 845.346 253.319 843.965 254.333L841.501 256.176L844.951 255.531C855.698 253.595 855.797 253.595 855.797 256.176C855.797 257.928 854.515 259.311 850.374 261.892C847.416 263.827 844.951 265.579 844.951 265.763C844.951 266.224 849.684 265.395 853.233 264.473C854.909 264.012 854.811 264.473 852.543 268.344C849.881 272.677 849.881 272.677 851.754 275.166C855.698 280.328 870.882 293.049 879.361 298.212L888.235 303.65L885.967 305.586L883.699 307.522L876.403 301.714Z" fill="#34F1B5"/>
<path d="M604.021 74.5171C611.05 84.0953 613.352 88.7026 618.079 101.918C620.018 107.738 622.078 113.073 622.563 113.921C622.926 114.649 623.411 108.95 623.532 101.191C623.653 93.4311 624.259 84.5803 624.865 81.5492L625.956 76.0933L627.41 81.5492C629.592 89.1876 629.349 105.434 626.926 113.679C624.017 123.984 625.835 126.409 629.471 116.952C631.046 112.709 634.439 105.313 636.863 100.584L641.468 91.8549L642.074 99.1295L642.68 106.404L644.862 102.767L647.043 99.1295L646.558 105.919C646.316 109.556 644.862 115.134 643.286 118.407C640.378 124.469 631.652 134.654 630.44 133.32C630.076 132.956 630.925 130.047 632.379 126.894L634.924 121.075L631.531 123.984C629.713 125.682 628.016 127.016 627.895 127.137C627.289 127.258 630.561 139.746 631.167 139.746C631.531 139.746 633.955 136.109 636.621 131.744C641.226 124.227 658.556 106.04 659.889 107.374C660.98 108.465 656.617 125.197 653.951 130.532C652.618 133.199 647.407 139.504 642.559 144.353C633.833 152.84 633.712 153.204 634.561 157.569L635.53 162.055L641.105 154.78C646.801 147.384 666.191 128.349 667.161 129.198C668.373 130.41 662.071 143.868 657.829 149.324C652.739 155.75 649.103 158.66 641.105 162.661C637.348 164.601 636.015 165.935 636.015 168.117C636.015 172.846 637.348 172.603 644.377 166.298C650.8 160.479 666.797 151.749 673.947 150.173C676.977 149.446 677.219 149.567 676.129 151.749C675.402 152.962 672.493 155.993 669.706 158.418C665.1 162.419 664.858 162.661 668.009 161.57C669.948 160.842 671.645 160.479 671.887 160.721C672.251 160.964 670.433 163.752 668.009 166.905C662.919 173.694 651.891 181.09 644.013 183.394C638.439 184.97 638.439 184.97 638.439 190.426V195.882L643.771 190.911C653.345 182.06 662.919 177.453 675.402 175.513L680.249 174.664L674.432 180.363L668.615 186.061L673.584 185.212C676.613 184.727 678.431 184.849 678.431 185.697C678.431 187.637 664.252 198.549 656.981 202.187C653.224 204.005 647.649 206.188 644.377 207.158C639.408 208.612 638.439 209.461 638.439 211.886C638.439 214.796 638.56 214.796 645.225 210.067C648.982 207.521 655.405 204.248 659.404 202.914C667.282 200.368 680.855 198.185 679.401 199.762C678.916 200.247 674.068 203.035 668.494 206.066C662.919 208.976 659.526 211.159 660.859 210.674C664.131 209.582 676.613 206.915 682.673 205.824L687.521 205.096L681.946 210.31C675.159 216.615 663.646 232.74 666.797 231.527C668.009 231.042 671.16 230.315 673.947 229.83L678.916 229.103L676.735 232.376C675.644 234.195 674.796 236.013 675.159 236.256C675.402 236.498 677.947 235.892 680.855 234.922C683.642 233.952 686.187 233.104 686.551 233.104C688.248 233.104 681.461 241.712 675.159 247.532C666.312 255.655 656.496 260.99 640.135 266.446C631.41 269.234 628.137 270.932 627.41 272.872C626.562 275.175 627.168 274.933 635.166 271.174C640.014 268.87 647.77 266.203 652.375 265.233C661.101 263.415 676.735 263.051 682.067 264.506C684.733 265.233 684.248 265.718 677.219 268.507C664.616 273.478 640.862 279.176 632.5 279.176C626.441 279.176 624.865 279.54 624.259 281.237C623.896 282.45 621.957 287.421 620.018 292.149C616.624 300.394 616.14 301 612.746 301H609.111L611.292 297.605C612.504 295.787 615.291 290.816 617.473 286.451C621.108 279.297 621.23 278.449 619.291 277.721C590.569 266.567 571.542 256.746 560.877 247.532L556.635 243.894L562.695 244.743C577.238 246.683 595.295 255.534 611.777 268.87C616.988 273.114 621.593 276.266 621.957 275.781C623.896 273.963 622.199 271.053 618.079 268.87C615.655 267.537 607.778 260.747 600.749 253.715C593.598 246.683 584.146 237.953 579.661 234.437C575.056 230.8 572.027 227.526 572.754 227.284C574.693 226.678 592.629 232.74 600.264 236.498C608.141 240.378 615.897 245.834 622.32 251.654C625.108 254.2 627.532 255.776 627.895 255.291C628.259 254.806 628.865 251.896 629.349 248.865L630.076 243.409L621.23 241.348C609.232 238.438 594.81 231.042 584.509 222.555C574.935 214.675 575.662 213.341 587.539 217.342C598.809 221.101 612.868 228.496 622.078 235.528C626.562 238.923 630.319 241.591 630.561 241.348C630.682 241.106 631.167 237.953 631.652 234.195L632.379 227.405L624.744 226.556C609.717 225.102 593.114 219.039 580.025 210.31C573.966 206.309 575.905 204.975 585.963 206.066C590.205 206.43 593.598 206.43 593.598 206.066C593.598 205.703 591.78 204.369 589.599 202.914L585.721 200.368H592.265H598.931L593.598 196.367C588.63 192.851 588.387 192.487 591.053 192.123C596.022 191.396 610.201 195.639 622.078 201.459L633.712 207.158L633.349 202.914C632.985 198.67 632.864 198.67 625.108 197.094C614.564 194.912 600.627 190.183 592.386 185.819L585.721 182.303L591.902 182.181C603.536 182.181 618.442 187.031 630.198 194.791L633.591 196.973V191.032V185.091L623.532 183.636C615.776 182.545 610.928 180.848 600.87 175.877C589.963 170.421 588.63 169.451 591.659 169.087C596.87 168.481 612.262 172.239 623.169 176.847C634.439 181.696 633.591 181.454 633.591 179.272C633.591 178.302 631.531 176.847 628.986 175.998C623.532 174.179 620.139 172.118 612.746 166.177C609.717 163.631 604.142 160.479 600.385 159.145C589.357 155.387 588.387 154.417 595.78 154.295H602.082L600.021 151.022C597.84 147.748 597.961 147.748 606.081 152.234C610.565 154.78 617.109 157.811 620.624 159.145C624.017 160.358 627.895 161.691 628.986 162.176C630.682 162.904 631.167 162.419 631.167 159.994C631.167 157.448 630.44 156.841 626.562 156.114C619.412 154.902 603.172 146.415 597.234 141.08C591.902 136.109 591.78 136.109 595.416 136.836C598.809 137.564 598.567 137.321 593.598 133.926C590.569 131.865 586.812 129.077 585.115 127.743L582.085 125.197H585.721C587.781 125.197 593.235 126.288 597.84 127.501C602.445 128.834 606.444 129.804 606.566 129.562C606.687 129.44 602.93 125.318 598.082 120.226C584.751 106.404 584.873 106.768 592.508 108.95C596.143 110.041 600.87 111.618 603.172 112.588C607.172 114.285 607.05 114.164 600.991 108.102C597.598 104.707 593.72 99.857 592.265 97.1896L589.841 92.3399L592.629 93.7948C598.809 97.0684 606.687 103.009 614.079 109.92C620.26 115.861 621.593 116.71 620.866 114.285C620.502 112.588 617.352 107.253 613.958 102.403C607.656 93.1886 600.749 79.3668 598.688 71.486C597.961 69.0611 597.719 67 597.961 67C598.204 67 600.991 70.3948 604.021 74.5171ZM616.624 120.468C621.957 124.712 623.896 125.561 623.896 123.378C623.896 122.408 622.078 120.832 619.897 119.862C614.322 117.437 613.11 117.559 616.624 120.468ZM620.866 132.472C623.896 135.139 626.683 137.321 626.926 137.321C627.168 137.321 626.804 135.503 626.198 133.441C625.592 131.259 625.108 129.319 625.108 129.198C625.108 128.955 620.139 127.985 617.473 127.743C616.018 127.622 617.109 129.319 620.866 132.472ZM632.864 143.99C631.531 147.263 633.106 148.476 634.561 145.323C635.409 143.383 635.53 142.171 634.682 142.171C634.076 142.171 633.227 143.02 632.864 143.99ZM622.199 148.112C629.471 152.962 630.804 152.962 629.471 147.627C628.865 145.202 627.774 144.596 623.532 144.232C620.745 143.99 617.715 143.747 616.746 143.626C615.897 143.505 618.321 145.566 622.199 148.112ZM625.108 165.571C625.108 165.813 626.683 167.511 628.743 169.451L632.379 172.967V169.815C632.379 166.662 632.016 166.42 625.956 165.328C625.471 165.328 625.108 165.328 625.108 165.571ZM637.469 176.847C637.227 176.968 637.227 178.302 637.469 179.756C637.833 182.303 637.954 182.181 641.468 178.544L645.104 174.664L641.468 175.634C639.408 176.119 637.711 176.604 637.469 176.847ZM643.771 195.639C638.802 196.973 638.439 197.216 638.439 201.217V205.46L643.407 201.338C653.103 193.578 653.83 192.73 651.285 193.578C650.073 194.063 646.68 194.912 643.771 195.639ZM623.896 209.34C623.896 209.825 632.137 214.917 633.106 214.917C633.349 214.917 633.591 213.826 633.591 212.613C633.591 210.31 632.5 209.825 625.35 208.976C624.623 208.976 623.896 209.097 623.896 209.34ZM644.498 215.402C638.439 216.736 637.833 217.221 637.469 220.494C636.984 223.768 637.106 223.889 639.287 221.949C640.499 220.858 643.892 218.554 646.922 216.857C649.952 215.16 652.133 213.705 651.769 213.826C651.406 213.826 648.134 214.553 644.498 215.402ZM623.169 217.706C624.381 218.554 627.047 220.494 628.865 221.949C631.531 224.132 632.379 224.374 632.379 223.04C632.379 221.949 632.743 220.373 633.106 219.403C633.712 217.584 631.167 216.736 623.29 216.372C620.987 216.251 620.987 216.372 623.169 217.706ZM636.984 228.739C636.5 229.466 636.015 231.406 636.015 232.861C636.015 235.65 636.015 235.65 640.862 231.891C643.529 229.83 645.952 227.526 646.437 226.92C647.407 225.223 638.075 227.041 636.984 228.739ZM634.076 246.077C633.712 248.017 633.106 250.563 632.743 251.896C632.258 253.594 633.712 252.866 637.954 248.987C641.226 245.955 644.135 243.409 644.377 243.167C644.619 242.924 642.68 242.803 639.893 242.803C635.409 242.803 634.803 243.167 634.076 246.077ZM616.14 261.596C623.411 269.962 625.229 270.325 625.471 263.415C625.714 259.777 625.35 259.413 618.442 256.746C614.443 255.291 610.686 253.958 610.201 253.836C609.595 253.836 612.262 257.231 616.14 261.596ZM631.41 259.292C631.288 259.292 630.561 261.111 629.955 263.293L628.865 267.052L635.53 261.353C639.166 258.201 642.074 255.534 642.074 255.412C642.074 255.17 632.379 258.686 631.41 259.292Z" fill="#FF9C06"/>
<path d="M379.832 122.042C383.105 123.392 383.682 125.321 383.682 136.699C383.682 150.777 386.762 155.212 390.613 146.727C392.73 141.906 392.345 139.399 387.532 127.442C386.377 124.742 387.147 124.164 392.923 124.164C396.773 124.164 401.586 125.899 404.666 128.213C408.709 131.492 409.672 133.613 409.672 141.134C409.672 147.113 408.324 151.741 405.821 155.019C401.778 160.033 400.623 166.59 403.896 166.59C404.859 166.59 407.361 164.662 409.672 162.347C412.752 159.069 413.522 155.598 413.522 146.148C413.522 139.399 414.099 133.613 415.062 133.035C415.832 132.649 421.607 134.963 427.96 138.242C437.394 143.256 439.704 145.377 440.089 149.812C440.666 154.248 441.244 154.826 443.361 153.091C445.287 151.355 447.212 151.741 450.87 154.055C457.993 158.876 457.222 165.24 448.174 175.075C439.704 184.139 438.549 187.803 443.939 187.803C448.944 187.803 453.18 182.404 455.875 172.761C457.993 164.662 458.185 164.469 461.65 167.554C466.078 171.604 470.121 181.247 468.773 184.718C468.196 186.261 462.805 190.696 456.837 194.553C449.522 199.181 446.249 202.46 446.634 204.774C447.789 211.138 454.142 209.595 462.805 200.531C470.891 191.853 471.276 191.853 471.276 196.674C471.276 211.331 457.993 222.516 440.474 222.516C435.083 222.516 428.923 221.552 426.805 220.588C420.837 217.309 422.185 223.287 431.811 243.151C439.126 258.193 442.399 262.436 451.255 269.378C460.688 276.899 487.447 291.748 496.688 294.641C498.613 295.22 500.153 297.534 500.153 299.655C500.153 310.262 467.041 297.148 449.329 279.406C437.201 267.45 429.308 253.757 421.222 231.387L419.105 225.794L413.714 237.172C410.634 243.536 405.629 251.058 402.163 253.95C389.843 264.364 372.131 262.436 359.233 249.515C349.8 240.065 349.607 236.98 358.848 240.837C371.554 246.043 389.843 242.958 385.607 236.208C384.26 233.894 382.72 233.894 367.126 237.172C360.388 238.715 350.762 233.508 347.105 226.373C344.409 221.166 343.062 207.088 345.179 207.088C345.757 207.088 350.762 210.174 356.345 213.838C368.089 221.745 376.174 223.48 382.72 220.009C388.688 216.923 389.458 209.788 383.682 210.559C381.565 210.752 375.789 211.524 370.976 212.102C363.083 213.259 361.543 212.681 354.998 207.088C345.179 198.41 342.292 191.853 342.292 178.354C342.292 165.819 344.602 162.155 348.26 168.711C351.725 175.461 365.586 189.732 371.361 192.817C379.254 196.867 384.645 196.289 384.645 191.468C384.645 187.418 375.019 182.018 367.704 182.018C358.463 182.018 345.372 163.89 346.527 152.705C347.297 144.413 350.57 144.027 354.42 151.934C356.153 155.598 359.618 160.033 362.313 161.769C368.089 165.626 375.789 164.855 376.559 160.226C377.137 157.526 375.789 156.948 369.436 156.948C360.966 156.948 356.538 153.669 352.687 144.027C349.415 136.313 349.222 131.685 352.302 125.128C354.228 120.692 355.575 120.307 365.201 120.5C371.169 120.5 377.714 121.271 379.832 122.042ZM424.688 167.554C419.105 169.29 411.404 176.233 412.752 178.354C416.217 183.946 430.271 174.883 437.394 162.347L441.244 155.984L435.083 161.19C431.618 164.083 426.998 166.976 424.688 167.554Z" fill="#FFB9D2"/>
<path d="M262.505 119.631C262.505 132.25 256.079 154.289 246.619 173.306L238.051 191.079L256.079 172.062C275.536 151.623 280.534 148.424 275.893 159.621C270.895 171.351 262.505 182.904 251.617 193.034C245.726 198.366 241.442 202.81 242.156 202.81C242.87 202.81 251.974 200.144 262.327 196.767C272.68 193.568 283.568 190.191 286.603 189.48L291.779 188.413L288.388 192.324C282.854 198.366 261.97 207.609 248.047 210.097C232.517 212.763 234.124 213.829 262.862 219.872C275 222.36 285.532 225.026 286.424 225.915C287.138 226.626 283.39 227.87 277.856 228.581C268.574 229.825 251.974 227.337 241.978 223.071C240.014 222.36 243.584 226.804 250.01 232.847C256.793 239.423 260.72 244.399 259.471 244.932C255.544 246.354 239.122 236.046 230.911 226.804L222.7 217.917L223.771 243.688C224.663 265.905 227.698 287.233 235.016 323.135C235.909 327.756 235.552 329 233.41 329C231.446 329 230.018 324.912 227.876 313.36C223.057 286.877 219.308 245.643 220.201 229.825C220.915 221.827 221.093 215.251 220.915 215.251C220.736 215.251 216.809 216.495 212.168 217.739C199.673 221.649 157.726 224.849 153.62 222.36C150.586 220.405 170.935 214.007 188.785 211.341C195.925 210.275 201.815 208.675 201.815 207.786C201.815 207.075 200.566 206.364 199.138 206.364C195.211 206.364 142.91 186.636 142.91 185.037C142.91 181.126 180.395 190.546 202.708 200.144C210.562 203.343 210.026 202.81 198.781 194.101C191.462 188.591 167.008 160.154 160.046 149.135L156.655 143.803L160.939 145.047C168.436 147.179 184.501 158.554 196.996 170.64C203.6 177.039 208.598 180.593 207.884 178.816C207.17 176.861 202.708 166.019 197.888 154.644C193.247 143.092 189.32 132.605 189.32 131.006C189.32 123.186 198.067 132.783 206.813 150.379C213.061 162.82 217.166 174.728 220.558 189.48C222.878 199.966 222.878 199.788 223.057 172.773C223.235 142.736 227.519 120.697 234.124 114.654C237.515 111.633 237.515 111.988 237.515 125.674C237.515 133.316 236.266 147.179 234.838 156.422C233.231 165.664 232.339 173.484 232.696 173.839C233.053 174.195 235.195 169.396 237.515 163.353C244.298 144.691 257.329 116.076 260.006 113.766C262.148 111.988 262.505 113.055 262.505 119.631Z" fill="#EA3556"/>
<path d="M59.3298 3.8129C61.2278 6.19594 63.8374 19.3027 65.2609 35.0308C67.6333 57.4314 67.3961 64.8188 64.7864 74.5893C58.6181 97.9431 62.1767 98.4197 73.0899 75.7808C76.6485 68.6317 81.8678 61.9592 85.1892 60.291C90.6458 57.4314 91.1203 57.6697 91.832 63.389C93.0182 71.4913 86.6127 80.7852 76.8858 84.8364C63.1257 90.5557 59.0926 98.4197 53.3988 131.067C52.687 134.404 52.9243 129.399 53.636 120.344C54.3477 111.05 55.2967 96.5133 55.2967 87.4577C55.5339 71.7296 55.2967 71.253 46.5187 63.1507C38.4525 55.5249 37.7408 54.0951 37.7408 41.465C37.7408 27.8816 37.7408 27.8816 42.4856 32.1711C46.9932 36.2223 49.3656 43.1331 56.9574 71.4913C59.3298 80.3086 60.0416 81.5001 61.465 77.4489C64.5492 69.8232 61.2278 37.6521 56.2457 28.5965C51.9753 20.2559 50.3146 2.99891e-05 54.1105 2.99891e-05C55.2967 2.99891e-05 57.6691 1.66816 59.3298 3.8129Z" fill="#F3B71A"/>
<path d="M101.559 12.1536C98.7123 24.5454 93.2558 32.6478 84.715 37.1755C80.9192 39.082 75.6998 44.0864 73.0902 48.3758L68.1081 56.0016L69.5315 49.3291C74.9881 25.022 89.4599 2.38311 99.4241 2.38311C103.22 2.38311 103.457 3.57463 101.559 12.1536Z" fill="#F3B71A"/>
<path d="M24.2184 56.7164C30.6239 63.8655 33.4709 74.5892 32.0474 86.9811C30.8612 95.56 31.8102 102.947 35.3688 113.195L40.1136 127.493L38.6902 107.237C37.0295 79.5936 42.4861 65.5337 49.8406 79.117C54.3482 87.4577 53.162 100.326 46.2819 115.101C38.9274 131.306 38.9274 132.974 44.1468 144.412L48.4171 153.23L49.8406 146.319C50.5523 142.029 51.7385 148.464 52.9247 163.238L54.8227 186.831L60.7537 172.771C65.0241 162.762 66.2103 156.566 65.2613 150.37C61.4655 127.969 60.991 116.769 63.8379 108.667C65.2613 103.901 67.6338 100.088 68.82 100.088C72.3786 100.088 73.5648 110.335 72.6158 133.689C71.6669 150.847 70.0062 159.664 65.2613 171.102C61.9399 179.205 59.093 186.354 59.093 187.307C59.093 189.929 74.5138 175.63 77.5979 170.149C79.2586 167.051 83.7662 162.762 87.5621 160.855C94.9166 157.043 106.542 156.089 106.542 159.187C106.542 163.715 92.0697 174.439 81.6311 177.537C75.4628 179.443 67.871 183.971 65.0241 187.545C57.9068 195.41 54.1109 210.899 56.2461 221.623L58.1441 229.725L63.6006 214.474C68.82 200.176 81.3938 183.494 84.478 186.592C88.2738 190.405 82.1055 205.18 73.0903 213.044C56.7206 228.057 56.0089 234.73 66.4475 276.195C70.4807 292.161 73.0903 306.459 72.6158 308.128C70.7179 312.894 65.9731 297.88 60.2792 269.284L54.8227 242.117L39.4019 227.581C24.4556 213.759 19.4736 206.372 23.2694 203.989C27.3026 201.367 40.3509 212.567 46.0447 224.006C49.3661 230.44 52.6875 235.921 53.3992 235.921C53.8737 235.921 53.8737 230.202 52.9247 223.291C50.7895 207.801 42.2488 194.933 28.9632 188.499C23.0322 185.639 17.3384 180.635 15.2032 176.107C11.4073 168.719 11.4073 168.719 16.8639 170.388C23.2694 172.294 29.675 177.537 36.555 185.877C39.1647 188.975 43.6723 194.456 46.7564 197.793L51.9758 203.75L49.6033 197.078C45.5702 185.401 40.5881 177.775 33.2336 170.626C26.5908 164.192 19.2363 148.94 21.6087 146.557C24.6929 143.459 34.6571 155.374 41.5371 170.149L49.3661 187.069V173.247C49.6033 164.192 48.1799 156.566 45.0957 150.37C39.6392 139.885 36.7922 137.263 23.0322 130.352C17.5756 127.493 10.9328 121.535 8.5604 117.246L4.0528 109.62H9.50937C13.068 109.62 18.9991 113.909 26.1163 121.773L37.2667 133.927L35.3688 126.063C32.2846 112.956 31.0984 111.288 15.6777 100.088C6.42522 93.4153 0.731407 87.2194 0.256922 83.8831C-0.454805 79.117 0.0196794 78.8787 5.47625 81.2618C8.79765 82.9299 11.6446 84.8363 11.6446 85.5512C11.6446 86.2661 15.9149 91.7471 21.1343 97.7048C29.4377 106.999 32.2846 105.092 24.6929 95.3217C19.2363 88.1726 16.3894 78.1638 16.3894 66.7252C16.3894 53.6184 18.7618 50.5205 24.2184 56.7164Z" fill="#F3B71A"/>
<path d="M123.148 83.4066C123.148 95.5601 117.217 105.569 103.457 116.769C90.409 127.493 81.631 137.978 83.2917 141.076C84.0034 142.983 74.9882 150.37 73.5648 148.94C73.0903 148.464 76.1744 143.221 80.4448 137.263C87.7993 127.016 88.0366 126.063 86.3759 110.097C85.1897 96.9899 85.6641 91.9855 88.7483 86.0279C97.289 69.1083 102.983 91.7472 94.6793 109.858C91.5952 116.293 89.6973 122.25 90.409 122.965C93.2559 125.825 101.322 113.671 105.355 100.088C111.761 79.1171 123.148 68.3934 123.148 83.4066Z" fill="#F3B71A"/>
<path d="M129.791 126.778C127.419 133.689 115.557 139.17 103.457 139.408C96.5772 139.646 89.4599 140.6 87.562 141.553C85.6641 142.506 86.613 141.076 89.9344 138.455C93.2558 135.834 100.136 131.306 105.592 128.684C116.268 123.442 131.215 122.25 129.791 126.778Z" fill="#F3B71A"/>
<defs>
<filter id="filter0_d" x="1264.13" y="45" width="179.849" height="266" filterUnits="userSpaceOnUse" color-interpolation-filters="sRGB">
<feFlood flood-opacity="0" result="BackgroundImageFix"/>
<feColorMatrix in="SourceAlpha" type="matrix" values="0 0 0 0 0 0 0 0 0 0 0 0 0 0 0 0 0 0 127 0"/>
<feOffset dy="4"/>
<feGaussianBlur stdDeviation="2"/>
<feColorMatrix type="matrix" values="0 0 0 0 0 0 0 0 0 0 0 0 0 0 0 0 0 0 0.25 0"/>
<feBlend mode="normal" in2="BackgroundImageFix" result="effect1_dropShadow"/>
<feBlend mode="normal" in="SourceGraphic" in2="effect1_dropShadow" result="shape"/>
</filter>
</defs>
</svg>
