<svg width="95" height="95" viewBox="0 0 95 95" fill="none" xmlns="http://www.w3.org/2000/svg">
<path d="M47.5007 95C46.4599 95 45.5126 94.4183 45.0429 93.4924L40.2395 84.0088L32.1699 90.936C31.7818 91.2632 31.3117 91.4781 30.8103 91.5576C30.309 91.6371 29.7954 91.5781 29.3252 91.387C28.855 91.1936 28.4478 90.8733 28.1491 90.462C27.8503 90.0506 27.6718 89.5644 27.6333 89.0574L26.8221 78.4478L16.7136 81.7593C16.2299 81.9164 15.7121 81.9365 15.2176 81.8175C14.723 81.6986 14.2711 81.4451 13.9117 81.0852C13.5523 80.7253 13.2996 80.2729 13.1813 79.7783C13.0631 79.2836 13.084 78.7659 13.2418 78.2824L16.5508 68.1744L5.95137 67.3712C5.44475 67.3307 4.95915 67.1512 4.54813 66.8523C4.1371 66.5533 3.81662 66.1467 3.62203 65.6772C3.42744 65.2078 3.3663 64.6937 3.44535 64.1916C3.52441 63.6896 3.74058 63.2192 4.07004 62.8322L10.9923 54.7629L1.50823 49.9598C1.05444 49.7293 0.673332 49.3777 0.407122 48.9439C0.140912 48.5101 0 48.0111 0 47.5022C0 46.9932 0.140912 46.4942 0.407122 46.0604C0.673332 45.6267 1.05444 45.275 1.50823 45.0446L10.9923 40.2414L4.07004 32.1721C3.73735 31.7864 3.51839 31.3159 3.43759 30.813C3.35679 30.3101 3.41733 29.7946 3.61245 29.3241C3.80758 28.8536 4.12961 28.4466 4.54262 28.1485C4.95562 27.8504 5.44335 27.6729 5.95137 27.6358L16.5508 26.8246L13.2418 16.7166C13.0837 16.2331 13.0623 15.7153 13.18 15.2203C13.2977 14.7254 13.55 14.2727 13.909 13.9121C14.2697 13.5535 14.7225 13.3014 15.2174 13.1836C15.7122 13.0659 16.23 13.0872 16.7136 13.245L26.8221 16.5539L27.6333 5.95492C27.6723 5.44787 27.8509 4.96152 28.1493 4.54976C28.4478 4.138 28.8544 3.81693 29.3242 3.62212C29.794 3.42731 30.3085 3.36639 30.8108 3.44609C31.3131 3.5258 31.7835 3.74302 32.1699 4.07368L40.2395 10.9956L45.0429 1.512C45.2723 1.05733 45.6234 0.675251 46.0571 0.408298C46.4908 0.141346 46.9901 0 47.4993 0C48.0086 0 48.5079 0.141346 48.9416 0.408298C49.3753 0.675251 49.7264 1.05733 49.9557 1.512L54.7645 10.9956L62.8341 4.07368C63.22 3.74154 63.6907 3.52322 64.1935 3.44311C64.6963 3.363 65.2115 3.42426 65.6815 3.62005C66.6368 4.01765 67.2906 4.91957 67.3733 5.95492L68.1819 16.5539L78.2824 13.245C78.7654 13.0856 79.2832 13.0635 79.778 13.1813C80.2728 13.2991 80.7251 13.5521 81.0843 13.9121C81.8209 14.6486 82.0797 15.732 81.7568 16.7166L78.4452 26.8246L89.0553 27.6358C89.5617 27.6761 90.0471 27.8556 90.4579 28.1544C90.8687 28.4532 91.1889 28.8596 91.3833 29.3289C91.5776 29.7982 91.6385 30.3121 91.5592 30.8138C91.48 31.3156 91.2636 31.7856 90.934 32.1721L84.0064 40.2414L93.4904 45.0446C93.9443 45.2748 94.3257 45.6262 94.5921 46.0598C94.8585 46.4935 94.9997 46.9924 95 47.5014C95.0003 48.0103 94.8596 48.5094 94.5937 48.9433C94.3277 49.3772 93.9468 49.7291 93.4931 49.9598L84.0091 54.7629L90.9366 62.8322C91.2673 63.2192 91.4843 63.6902 91.5636 64.193C91.643 64.6957 91.5816 65.2106 91.3862 65.6806C91.1908 66.1506 90.8692 66.5574 90.4568 66.8558C90.0444 67.1542 89.5575 67.3326 89.05 67.3712L78.4478 68.1744L81.7595 78.2824C81.9182 78.7662 81.9394 79.2847 81.8207 79.7799C81.7019 80.2751 81.4479 80.7276 81.087 81.0869C80.7285 81.4481 80.2764 81.7023 79.7815 81.8211C79.2867 81.9398 78.7685 81.9184 78.285 81.7593L68.1846 78.4478L67.376 89.0494C67.3364 89.5565 67.1575 90.0427 66.8589 90.4545C66.5604 90.8662 66.1538 91.1874 65.6841 91.3826C65.2145 91.5778 64.7 91.6394 64.1975 91.5606C63.6951 91.4818 63.2242 91.2656 62.8368 90.936L54.7671 84.0088L49.9584 93.4924C49.7278 93.946 49.3762 94.327 48.9424 94.5931C48.5086 94.8592 48.0096 95.0001 47.5007 95V95Z" fill="#F4900C"/>
<path d="M82.3144 47.6211C82.3144 66.7776 66.7808 82.3105 47.6233 82.3105C28.4657 82.3105 12.9321 66.7803 12.9321 47.6211C12.9321 28.4618 28.4657 12.9316 47.6233 12.9316C66.7808 12.9316 82.3144 28.4645 82.3144 47.6211Z" fill="#FFCC4D"/>
</svg>
