<svg width="89" height="77" viewBox="0 0 89 77" fill="none" xmlns="http://www.w3.org/2000/svg">
<path d="M88.7612 13.4504C89.2984 13.9827 88.0261 13.4504 88.7612 13.4504C88.7612 14.1788 88.2241 12.9182 88.7612 13.4504C88.7612 12.7221 88.2241 13.9827 88.7612 13.4504C89.2984 12.9182 88.0261 13.4504 88.7612 13.4504C89.4964 13.4504 88.2241 12.9182 88.7612 13.4504C89.2984 13.9827 88.7612 12.7221 88.7612 13.4504C88.7612 14.1788 89.2984 12.9182 88.7612 13.4504C88.2241 13.9827 89.4964 13.4504 88.7612 13.4504ZM82.6661 2.64216C83.2033 3.17442 81.9309 2.64216 82.6661 2.64216C82.6661 3.37052 82.1289 2.10989 82.6661 2.64216C82.6661 1.91379 82.1289 3.17442 82.6661 2.64216C83.2033 2.10989 81.9309 2.64216 82.6661 2.64216C83.4012 2.64216 82.1289 2.10989 82.6661 2.64216C83.2033 3.17442 82.6661 1.91379 82.6661 2.64216C82.6661 3.37052 83.2033 2.10989 82.6661 2.64216C82.1289 3.17442 83.4012 2.64216 82.6661 2.64216ZM73.3624 16.136C72.6273 16.136 71.9911 15.8699 71.4539 15.3376C70.9167 14.8054 70.6481 14.1751 70.6481 13.4467C70.6481 12.7183 70.9167 12.088 71.4539 11.5557C71.9911 11.0235 72.6273 10.7574 73.3624 10.7574C74.0975 10.7574 74.7337 11.0235 75.2709 11.5557C75.8081 12.088 77.3328 12.7183 77.3328 13.4467C77.3328 14.1751 75.8081 14.8054 75.2709 15.3376C74.7337 15.8699 74.0975 16.136 73.3624 16.136ZM67.9339 8.06801C67.1988 8.06801 66.5626 7.80188 66.0254 7.26962C65.4882 6.73735 65.2196 6.10704 65.2196 5.37868C65.2196 4.65031 65.4882 4.02 66.0254 3.48774C66.5626 2.95547 67.1988 2.68934 67.9339 2.68934C68.669 2.68934 69.3051 2.95547 69.8423 3.48774C70.3795 4.02 71.9995 4.65031 71.9995 5.37868C71.9995 6.10704 70.3795 6.73735 69.8423 7.26962C69.3051 7.80188 68.669 8.06801 67.9339 8.06801ZM62.5053 16.136C61.7702 16.136 61.1341 15.8699 60.5969 15.3376C60.0597 14.8054 59.7911 14.1751 59.7911 13.4467C59.7911 12.7183 60.0597 12.088 60.5969 11.5557C61.1341 11.0235 61.7702 10.7574 62.5053 10.7574C63.2404 10.7574 63.8766 11.0235 64.4138 11.5557C64.951 12.088 66.0254 12.7183 66.0254 13.4467C66.0254 14.1751 64.951 14.8054 64.4138 15.3376C63.8766 15.8699 63.2404 16.136 62.5053 16.136ZM57.0768 10.7574C56.3417 10.7574 55.7055 10.4912 55.1683 9.95895C54.6311 9.42669 54.3625 8.79638 54.3625 8.06801C54.3625 7.33965 54.6311 6.70934 55.1683 6.17707C55.7055 5.64481 56.3417 5.37868 57.0768 5.37868C57.8119 5.37868 58.4481 5.64481 58.9853 6.17707C59.5225 6.70934 60.9951 7.33965 60.9951 8.06801C60.9951 8.79638 59.5225 9.42669 58.9853 9.95895C58.4481 10.4912 57.8119 10.7574 57.0768 10.7574ZM51.6483 16.136C50.9132 16.136 50.277 15.8699 49.7398 15.3376C49.2026 14.8054 48.934 14.1751 48.934 13.4467C48.934 12.7183 49.2026 12.088 49.7398 11.5557C50.277 11.0235 50.9132 10.7574 51.6483 10.7574C52.3834 10.7574 53.0195 11.0235 53.5567 11.5557C54.0939 12.088 55.6618 12.722 55.6618 13.4504C55.6618 14.1787 54.0939 14.8054 53.5567 15.3376C53.0195 15.8699 52.3834 16.136 51.6483 16.136ZM40.7912 16.136C40.0561 16.136 39.4199 15.8699 38.8827 15.3376C38.3455 14.8054 38.0769 14.1751 38.0769 13.4467C38.0769 12.7183 38.3455 12.088 38.8827 11.5557C39.4199 11.0235 40.0561 10.7574 40.7912 10.7574C41.5263 10.7574 42.1625 11.0235 42.6997 11.5557C43.2369 12.088 45.3762 12.7183 45.3762 13.4467C45.3762 14.1751 43.2369 14.8054 42.6997 15.3376C42.1625 15.8699 41.5263 16.136 40.7912 16.136ZM48.934 26.799C49.9519 27.8075 52.8358 36.2884 52.8358 37.7451V60.7696C52.8358 63.7391 53.2455 70.3695 51.125 72.4706C49.0045 74.5716 42.6935 77 39.6965 77H11.1253C8.12832 77 3.72211 74.5716 1.60159 72.4706C-0.518934 70.3695 0.0772218 63.7391 0.0772218 60.7696V37.7451C0.0206746 36.2323 3.06313 27.8635 4.08098 26.799L16.3628 19.3296V5.37868C16.3628 3.92195 16.9 2.66132 17.9744 1.59679C19.0488 0.532265 20.3211 0 21.7914 0H32.6484C34.1752 0 35.4616 0.532265 36.5078 1.59679C37.5539 2.66132 38.0769 3.92195 38.0769 5.37868V19.4137L48.934 26.799ZM57.0768 16.136C57.8119 16.136 58.4481 16.4022 58.9853 16.9344C59.5225 17.4667 60.9951 18.097 60.9951 18.8254C60.9951 19.5537 59.5225 20.184 58.9853 20.7163C58.4481 21.2486 57.8119 21.5147 57.0768 21.5147C56.3417 21.5147 55.7055 21.2486 55.1683 20.7163C54.6311 20.184 54.3625 19.5537 54.3625 18.8254C54.3625 18.097 54.6311 17.4667 55.1683 16.9344C55.7055 16.4022 56.3417 16.136 57.0768 16.136ZM67.9339 18.8254C68.669 18.8254 69.3051 19.0915 69.8423 19.6238C70.3795 20.156 71.4539 20.7863 71.4539 21.5147C71.4539 22.2431 70.3795 22.8734 69.8423 23.4056C69.3051 23.9379 68.669 24.204 67.9339 24.204C67.1988 24.204 66.5626 23.9379 66.0254 23.4056C65.4882 22.8734 65.2196 22.2431 65.2196 21.5147C65.2196 20.7863 65.4882 20.156 66.0254 19.6238C66.5626 19.0915 67.1988 18.8254 67.9339 18.8254ZM82.6661 24.204C82.1289 23.6718 83.4012 24.204 82.6661 24.204C82.6661 23.4757 83.2033 24.7363 82.6661 24.204C82.6661 24.9324 83.2033 23.6718 82.6661 24.204C82.1289 24.7363 83.4012 24.204 82.6661 24.204C81.9309 24.204 83.2033 24.7363 82.6661 24.204C82.1289 23.6718 82.6661 24.9324 82.6661 24.204C82.6661 23.4757 82.1289 24.7363 82.6661 24.204C83.2033 23.6718 81.9309 24.204 82.6661 24.204Z" fill="#F1B3A0"/>
</svg>
