<svg width="87" height="78" viewBox="0 0 87 78" fill="none" xmlns="http://www.w3.org/2000/svg">
<path d="M35.67 17.7667C35.67 14.2528 34.624 10.8178 32.6643 7.89604C30.7045 4.97433 27.9191 2.69713 24.6602 1.35241C21.4012 0.00769824 17.8152 -0.344141 14.3556 0.341389C10.8959 1.02692 7.71803 2.71903 5.22376 5.20374C2.72949 7.68846 1.03087 10.8542 0.342703 14.3006C-0.345465 17.747 0.00772741 21.3192 1.35762 24.5657C2.70751 27.8121 4.99346 30.5869 7.92641 32.5391C10.8594 34.4913 14.3076 35.5333 17.835 35.5333C22.2855 35.5222 26.5692 33.8448 29.8362 30.8341L38.6667 38.9567L38.7247 39L38.7053 39.0144L29.8313 47.1659C26.5669 44.1543 22.2843 42.4767 17.835 42.4667C14.3076 42.4667 10.8594 43.5087 7.92641 45.4609C4.99346 47.4131 2.70751 50.1879 1.35762 53.4343C0.00772741 56.6808 -0.345465 60.253 0.342703 63.6994C1.03087 67.1458 2.72949 70.3115 5.22376 72.7963C7.71803 75.281 10.8959 76.9731 14.3556 77.6586C17.8152 78.3441 21.4012 77.9923 24.6602 76.6476C27.9191 75.3029 30.7045 73.0257 32.6643 70.104C34.624 67.1822 35.67 63.7472 35.67 60.2333C35.67 58.8033 35.4573 57.4311 35.1335 56.1022L48.8795 46.5159L68.8267 61.2733C79.518 68.7315 87 58.0811 87 58.0811L35.1335 21.8978C35.4525 20.5689 35.67 19.1967 35.67 17.7667V17.7667ZM17.835 26.4333C16.6925 26.4333 15.5612 26.2092 14.5057 25.7736C13.4501 25.3381 12.491 24.6997 11.6832 23.8949C10.8753 23.0902 10.2345 22.1347 9.79726 21.0833C9.36004 20.0318 9.13501 18.9048 9.13501 17.7667C9.13501 16.6285 9.36004 15.5016 9.79726 14.4501C10.2345 13.3986 10.8753 12.4432 11.6832 11.6384C12.491 10.8336 13.4501 10.1953 14.5057 9.75972C15.5612 9.32417 16.6925 9.10001 17.835 9.10001C20.1424 9.10001 22.3553 10.0131 23.9868 11.6384C25.6184 13.2637 26.535 15.4681 26.535 17.7667C26.535 20.0652 25.6184 22.2696 23.9868 23.8949C22.3553 25.5202 20.1424 26.4333 17.835 26.4333V26.4333ZM17.835 68.9C15.5276 68.9 13.3147 67.9869 11.6832 66.3616C10.0516 64.7363 9.13501 62.5319 9.13501 60.2333C9.13501 57.9348 10.0516 55.7304 11.6832 54.1051C13.3147 52.4798 15.5276 51.5667 17.835 51.5667C20.1424 51.5667 22.3553 52.4798 23.9868 54.1051C25.6184 55.7304 26.535 57.9348 26.535 60.2333C26.535 62.5319 25.6184 64.7363 23.9868 66.3616C22.3553 67.9869 20.1424 68.9 17.835 68.9V68.9ZM87 19.9237C87 19.9237 79.518 9.27334 68.8267 16.7315L53.3358 27.4926L64.7135 35.4274L87 19.9237Z" fill="#44C668"/>
</svg>
