<svg width="52" height="96" viewBox="0 0 52 96" fill="none" xmlns="http://www.w3.org/2000/svg">
<path d="M30.2652 62.3125V41.4544C30.2652 40.2971 29.8097 39.1872 28.999 38.3689C28.1883 37.5505 27.0888 37.0908 25.9423 37.0908C24.7959 37.0908 23.6963 37.5505 22.8856 38.3689C22.075 39.1872 21.6195 40.2971 21.6195 41.4544V62.3125C20.3128 63.074 19.2263 64.1675 18.468 65.4842C17.7096 66.8009 17.3058 68.295 17.2967 69.818C17.2967 72.1326 18.2076 74.3524 19.8289 75.9891C21.4503 77.6258 23.6494 78.5452 25.9423 78.5452C28.2353 78.5452 30.4344 77.6258 32.0557 75.9891C33.6771 74.3524 34.588 72.1326 34.588 69.818C34.5789 68.295 34.1751 66.8009 33.4167 65.4842C32.6584 64.1675 31.5718 63.074 30.2652 62.3125ZM45.395 52.3635V19.6363C45.395 14.4284 43.3456 9.43386 39.6975 5.75134C36.0494 2.06882 31.1015 0 25.9423 0C20.7832 0 15.8353 2.06882 12.1872 5.75134C8.53911 9.43386 6.48963 14.4284 6.48963 19.6363V52.3635C3.50188 55.7811 1.44977 59.9268 0.536291 64.3907C-0.377188 68.8545 -0.120386 73.4817 1.2813 77.8146C2.68298 82.1475 5.18097 86.0359 8.52818 89.0953C11.8754 92.1546 15.9558 94.2789 20.3659 95.2579C22.1979 95.6794 24.0647 95.9278 25.9423 95.9997C30.9595 96.0233 35.8758 94.5775 40.0953 91.8374C44.3149 89.0974 47.6566 85.1808 49.7155 80.5623C51.7744 75.9438 52.4621 70.8217 51.6952 65.8166C50.9284 60.8115 48.7399 56.1384 45.395 52.3635ZM36.7494 83.2143C33.3099 86.2927 28.7999 87.8659 24.2114 87.5876C19.6229 87.3094 15.3319 85.2026 12.2822 81.7307C9.23257 78.2588 7.67414 73.7061 7.94978 69.0744C8.22541 64.4426 10.3125 60.111 13.752 57.0326C14.1604 56.6284 14.4854 56.1465 14.708 55.6147C14.9306 55.0829 15.0464 54.5117 15.0488 53.9344V19.6363C15.0488 16.743 16.1874 13.9683 18.2141 11.9224C20.2409 9.87659 22.9897 8.72725 25.8559 8.72725C28.7221 8.72725 31.4709 9.87659 33.4976 11.9224C35.5243 13.9683 36.6629 16.743 36.6629 19.6363V54.2835C36.6653 54.8608 36.7812 55.4319 37.0038 55.9638C37.2264 56.4956 37.5513 56.9775 37.9598 57.3817C39.7267 59.1047 41.1097 61.1881 42.0164 63.493C42.9232 65.7979 43.3329 68.2714 43.2184 70.7488C43.1039 73.2261 42.4677 75.6503 41.3522 77.8599C40.2368 80.0696 38.6677 82.0139 36.7494 83.5634V83.2143Z" fill="#FF8AB4"/>
</svg>
