<svg width="42" height="76" viewBox="0 0 42 76" fill="none" xmlns="http://www.w3.org/2000/svg">
<path d="M24.4449 49.3308V25.909C24.4449 24.9928 24.0771 24.1141 23.4223 23.4663C22.7675 22.8184 21.8794 22.4545 20.9534 22.4545C20.0274 22.4545 19.1393 22.8184 18.4846 23.4663C17.8298 24.1141 17.4619 24.9928 17.4619 25.909V49.3308C16.4065 49.9336 15.5289 50.7992 14.9164 51.8416C14.3039 52.884 13.9778 54.0668 13.9704 55.2726C13.9704 57.105 14.7061 58.8623 16.0157 60.158C17.3253 61.4537 19.1014 62.1816 20.9534 62.1816C22.8054 62.1816 24.5816 61.4537 25.8912 60.158C27.2007 58.8623 27.9364 57.105 27.9364 55.2726C27.9291 54.0668 27.6029 52.884 26.9904 51.8416C26.3779 50.7992 25.5003 49.9336 24.4449 49.3308ZM36.6652 41.4544V15.5454C36.6652 11.4225 35.0099 7.46847 32.0633 4.55314C29.1168 1.63781 25.1205 0 20.9534 0C16.7864 0 12.79 1.63781 9.84351 4.55314C6.89697 7.46847 5.24163 11.4225 5.24163 15.5454V41.4544C2.82844 44.16 1.17097 47.4421 0.433158 50.9759C-0.304652 54.5098 -0.0972346 58.173 1.03489 61.6032C2.16702 65.0334 4.18463 68.1118 6.88815 70.5337C9.59167 72.9557 12.8874 74.6374 16.4494 75.4125C17.929 75.7462 19.4369 75.9428 20.9534 75.9998C25.0058 76.0184 28.9766 74.8738 32.3847 72.7046C35.7928 70.5355 38.4919 67.4348 40.1548 63.7785C41.8178 60.1222 42.3732 56.0671 41.7538 52.1048C41.1345 48.1424 39.3669 44.4429 36.6652 41.4544ZM29.6822 65.878C26.9042 68.3151 23.2615 69.5605 19.5554 69.3402C15.8493 69.1199 12.3834 67.452 9.92025 64.7034C7.45707 61.9548 6.19835 58.3507 6.42097 54.6839C6.6436 51.017 8.32935 47.5879 11.1074 45.1508C11.4373 44.8308 11.6997 44.4493 11.8795 44.0283C12.0593 43.6073 12.1529 43.1551 12.1548 42.6981V15.5454C12.1548 13.2549 13.0745 11.0582 14.7114 9.4386C16.3484 7.81897 18.5686 6.90907 20.8836 6.90907C23.1986 6.90907 25.4188 7.81897 27.0558 9.4386C28.6927 11.0582 29.6124 13.2549 29.6124 15.5454V42.9744C29.6143 43.4315 29.7079 43.8836 29.8877 44.3046C30.0675 44.7257 30.3299 45.1072 30.6598 45.4271C32.087 46.7912 33.204 48.4406 33.9363 50.2653C34.6687 52.09 34.9997 54.0482 34.9072 56.0094C34.8147 57.9706 34.3008 59.8898 33.3999 61.6391C32.4989 63.3884 31.2316 64.9277 29.6822 66.1544V65.878Z" fill="#F1B3A0"/>
</svg>
