<svg width="81" height="99" viewBox="0 0 81 99" fill="none" xmlns="http://www.w3.org/2000/svg">
<path d="M15.5769 43.3125C11.4457 43.3125 7.48362 41.6779 4.56238 38.7683C1.64114 35.8587 0 31.9124 0 27.7976C0 17.4543 15.5769 0 15.5769 0C15.5769 0 31.1538 17.4543 31.1538 27.7976C31.1538 31.9124 29.5127 35.8587 26.5915 38.7683C23.6702 41.6779 19.7082 43.3125 15.5769 43.3125V43.3125Z" fill="#5C86F9"/>
<path d="M34.7143 46.8481C34.7143 46.8481 15.1318 66.7748 15.1318 80.8733C15.1318 91.996 22.6983 98.9999 34.7143 98.9999C46.7302 98.9999 54.2967 91.996 54.2967 80.8733C54.2967 66.7748 34.7143 46.8481 34.7143 46.8481V46.8481ZM36.8901 92.4542V89.4331C39.0533 89.4308 41.1272 88.6343 42.6568 87.2184C44.1864 85.8025 45.0469 83.8827 45.0494 81.8803H48.3132C48.3099 84.6838 47.1054 87.3715 44.9638 89.3539C42.8223 91.3362 39.9187 92.4512 36.8901 92.4542Z" fill="#7B9DFE"/>
<path d="M65.4231 60.1072C61.2919 60.1072 57.3298 58.4726 54.4086 55.563C51.4873 52.6534 49.8462 48.7071 49.8462 44.5923C49.8462 34.249 65.4231 16.7947 65.4231 16.7947C65.4231 16.7947 81 34.249 81 44.5923C81 48.7071 79.3589 52.6534 76.4377 55.563C73.5164 58.4726 69.5544 60.1072 65.4231 60.1072V60.1072Z" fill="#5C86F9"/>
</svg>
